<?xml version="1.0" encoding="utf-8"?>
<!-- Generator: Adobe Illustrator 27.5.0, SVG Export Plug-In . SVG Version: 6.00 Build 0)  -->
<svg version="1.1" xmlns="http://www.w3.org/2000/svg" xmlns:xlink="http://www.w3.org/1999/xlink" x="0px" y="0px"
	 viewBox="0 0 500 500" style="enable-background:new 0 0 500 500;" xml:space="preserve">
<g id="Floor">
	<ellipse style="fill:#F5F5F5;" cx="250" cy="334.939" rx="208.156" ry="120.179"/>
</g>
<g id="Shadows">
	<ellipse style="fill:#E0E0E0;" cx="269.991" cy="423.963" rx="25.374" ry="14.65"/>
	<path style="fill:#E0E0E0;" d="M307.144,402.251c6.505,3.756,6.505,9.845,0,13.601c-6.505,3.756-17.053,3.756-23.558,0
		c-6.505-3.756-6.505-9.845,0-13.601C290.091,398.495,300.639,398.495,307.144,402.251z"/>
	<path style="fill:#E0E0E0;" d="M100.227,345.098l163.863-94.606c5.95-3.435,13.28-3.435,19.23,0l40.197,23.592
		c4.184,2.415,4.183,8.454,0,10.869l-163.863,94.606c-5.95,3.435-13.28,3.435-19.23,0l-40.197-23.592
		C96.044,353.552,96.044,347.514,100.227,345.098z"/>
	<path style="fill:#E0E0E0;" d="M314.309,325.148l52.315-30.407c7.199-4.156,16.068-4.156,23.267,0l48.634,28.544
		c5.062,2.922,5.062,10.228,0,13.15l-52.316,30.407c-7.199,4.156-16.068,4.156-23.267,0l-48.634-28.544
		C309.248,335.376,309.248,328.071,314.309,325.148z"/>
</g>
<g id="Plant">
	<g>
		<g>
			<path style="fill:#BA68C8;" d="M190.241,381.65l-7.912,4.596c0,0,3.993-12.745,1.777-25.566c-0.836-4.84-2.597-7.243-3.218-8.535
				c-0.621-1.292-5.392-9.289-1.192-12.975c4.2-3.686,14.053,3.646,13.611,23.393C193.08,372.697,190.241,381.65,190.241,381.65z"/>
			<path style="opacity:0.3;" d="M190.241,381.65l-7.912,4.596c0,0,3.993-12.745,1.777-25.566c-0.836-4.84-2.597-7.243-3.218-8.535
				c-0.621-1.292-5.392-9.289-1.192-12.975c4.2-3.686,14.053,3.646,13.611,23.393C193.08,372.697,190.241,381.65,190.241,381.65z"/>
			
				<path style="fill:none;stroke:#FFFFFF;stroke-width:0.7907;stroke-linecap:round;stroke-linejoin:round;stroke-miterlimit:10;" d="
				M186.563,383.786c0,0,3.001-8.174,2.843-21.588c-0.158-13.414-7.168-20.374-7.168-20.374"/>
		</g>
		<g>
			<path style="fill:#BA68C8;" d="M184.105,385.241l-13.072,7.688c0,0-5.985-0.882-5.532-6.516c0.453-5.634,2.885-6.962-0.143-9.437
				c-3.028-2.475-3.809-2.639-3.665-5.066c0.145-2.426,1.777-3.485,2.545-4.446c0.768-0.962,2.909-2.979,1.402-5.905
				c-1.507-2.926-3.547-5.753-0.517-7.095c1.809-0.801,4.852,0.203,6.868,2.344c2.017,2.141,3.68,3.68,5.591,4.177
				c1.911,0.497,5.895,0.537,5.76,3.829c-0.134,3.292-0.989,4.429-0.19,5.891C184.658,373.457,191.084,374.94,184.105,385.241z"/>
			
				<path style="fill:none;stroke:#FFFFFF;stroke-width:0.7907;stroke-linecap:round;stroke-linejoin:round;stroke-miterlimit:10;" d="
				M178.781,388.371c0,0,1.581-19.366-11.992-32.195"/>
			
				<path style="fill:none;stroke:#FFFFFF;stroke-width:0.7907;stroke-linecap:round;stroke-linejoin:round;stroke-miterlimit:10;" d="
				M180.559,363.634c0,0-3.724,2.68-4.121,8.034"/>
			
				<path style="fill:none;stroke:#FFFFFF;stroke-width:0.7907;stroke-linecap:round;stroke-linejoin:round;stroke-miterlimit:10;" d="
				M177.403,374.994c0,0-3.335-3.713-11.115-2.644"/>
		</g>
	</g>
</g>
<g id="Device">
	<g>
		<g>
			<path style="fill:#263238;" d="M244.999,321.816L218.06,337.15c-1.793,1.024-3.766,1.612-5.759,1.761
				c-2.736,0.212-5.528-0.387-7.989-1.805l-17.264-9.975l-1.968-1.137c-4.166-2.411-6.733-6.858-6.733-11.668v-49.706l40.425-23.011
				v50.768c0,4.16,2.217,7.995,5.815,10.075l20.437,11.805C247.935,315.939,247.922,320.149,244.999,321.816z"/>
			<path style="fill:#37474F;" d="M212.303,338.912c1.992-0.15,3.965-0.737,5.756-1.761l26.939-15.334
				c2.923-1.668,2.936-5.878,0.025-7.558l-13.955-8.061h-18.766V338.912z"/>
			<path style="fill:#37474F;" d="M244.523,310.925l0.745,0.594c1.22,0.973,1.931,2.448,1.931,4.009v2.514H244.5L244.523,310.925z"
				/>
			<path style="fill:#455A64;" d="M221.876,245.451v45.679c0,4.023,2.146,7.741,5.63,9.753l17.017,10.042
				c2.82,1.629,2.807,5.704-0.023,7.315l-1.935,1.101l-24.147,13.743c-4.127,2.349-9.191,2.333-13.303-0.043l-16.745-9.885
				c-3.484-2.012-5.63-5.73-5.63-9.753v-45.679L221.876,245.451z"/>
			<path style="fill:#263238;" d="M221.876,291.13v-45.679l-39.137,22.273v45.679c0,4.023,2.146,7.741,5.63,9.753l38.557-22.634
				C223.786,298.445,221.876,294.924,221.876,291.13z"/>
		</g>
		<g>
			<path style="fill:#263238;" d="M115.681,336.798l-3.735,2.161v6.827c-2.401,0-4.751-0.644-6.813-1.874l-0.293-0.176
				c-1.75-1.041-2.961-2.746-3.41-4.686c-0.124-0.404-0.202-0.833-0.202-1.288v-9.306L115.681,336.798z"/>
			<g>
				<path style="fill:#37474F;" d="M278.002,85.854l-0.295-0.176c-2.061-1.227-4.414-1.875-6.813-1.875v0.001
					c-0.728-0.01-1.478,0.169-2.184,0.576l-160.97,92.564c-4.029,2.326-6.511,6.626-6.511,11.278v140.234l14.453,8.342
					l152.914-87.91c4.029-2.326,6.511-6.625,6.511-11.278V92.203h6.504C281.611,89.599,280.24,87.186,278.002,85.854z"/>
			</g>
			<path style="fill:#263238;" d="M102.614,182.378c-0.892,1.783-1.386,3.781-1.386,5.844v140.234l14.453,8.343l5.408-3.124V193.819
				L102.614,182.378z"/>
			<path style="fill:#37474F;" d="M107.732,332.211v9.306c0,3.283,3.554,5.334,6.396,3.693l160.97-92.564
				c4.029-2.326,6.511-6.626,6.511-11.278v-9.545L107.732,332.211z"/>
			<g>
				<path style="fill:#455A64;" d="M281.611,91.83c0-3.283-3.554-5.334-6.397-3.693l-160.97,92.564
					c-4.029,2.326-6.511,6.626-6.511,11.278v140.232l173.878-100.389"/>
			</g>
			<path style="fill:#BA68C8;" d="M272.281,98.287c0.029,0,0.025,0-0.031-0.004v0.004c-0.239,0.001-1.309,0.023-2.119,0.491
				l-151.286,86.973c-3.558,2.054-5.75,5.851-5.75,9.959v119.483c0,0.543,0.112,1.047,0.308,1.5c-0.001,0-0.002,0-0.002,0
				c0.848,1.963,3.303,2.939,5.343,1.761l151.286-86.973c3.558-2.054,5.75-5.851,5.75-9.959V102.039
				C275.779,99.944,274.138,98.425,272.281,98.287z"/>
			<path style="opacity:0.4;fill:#FFFFFF;" d="M272.281,98.287c0.029,0,0.025,0-0.031-0.004v0.004
				c-0.239,0.001-1.309,0.023-2.119,0.491l-151.286,86.973c-3.558,2.054-5.75,5.851-5.75,9.959v119.483
				c0,0.543,0.112,1.047,0.308,1.5c-0.001,0-0.002,0-0.002,0c0.848,1.963,3.303,2.939,5.343,1.761l151.286-86.973
				c3.558-2.054,5.75-5.851,5.75-9.959V102.039C275.779,99.944,274.138,98.425,272.281,98.287z"/>
		</g>
	</g>
</g>
<g id="Screen">
	<g>
		<g>
			<path style="fill:#E0E0E0;" d="M126.902,203.101v134.084c0,2.152,0.791,3.598,1.999,4.072l0.034,0.011l0.006,0.006l5.134,2.813
				l-0.028-4.569l0.728-137.851l-6.72-3.394C127.336,199.809,126.902,201.514,126.902,203.101z"/>
			<path style="fill:#F0F0F0;" d="M128.054,198.273l6.72,3.394l162.576-95.301l3.874-2.253l-5.354-3.016l-0.152-0.09V101
				c-0.853-0.514-1.971-0.48-3.202,0.232l-160.774,92.636C130.262,194.72,128.94,196.364,128.054,198.273z"/>
			<path style="fill:#FFFFFF;" d="M132.732,206.025v133.196c0,1.853,0.589,3.183,1.533,3.806l0.309,0.168
				c0.82,0.387,1.847,0.303,2.964-0.343l159.81-92.081c2.655-1.533,4.811-5.647,4.811-9.184V108.398c0-1.791-0.55-3.088-1.437-3.739
				c-0.151-0.112-0.314-0.208-0.488-0.275c-0.803-0.342-1.802-0.241-2.885,0.382l-159.81,92.081
				c-1.415,0.814-2.683,2.363-3.559,4.165C133.204,202.589,132.732,204.369,132.732,206.025z"/>
			<g>
				<path style="fill:#BA68C8;" d="M280.648,193.964l-76.164,43.973c-1.688,0.975-3.799-0.244-3.799-2.193v-40.739
					c0-4.24,2.262-8.158,5.934-10.277l74.405-42.958c2.42-1.397,5.446,0.349,5.446,3.144v38.966
					C286.469,188.04,284.25,191.884,280.648,193.964z"/>
				<g>
					<path style="fill:#BA68C8;" d="M212.772,261.06l-9.401,5.428c-1.648,0.952-2.984-0.059-2.984-2.256v-9.789
						c0-2.198,1.336-4.751,2.984-5.702l9.401-5.428c1.648-0.952,2.984,0.059,2.984,2.256v9.789
						C215.757,257.555,214.421,260.108,212.772,261.06z"/>
					<path style="fill:#BA68C8;" d="M235.702,247.895l-9.401,5.428c-1.648,0.952-2.984-0.059-2.984-2.256v-9.789
						c0-2.198,1.336-4.751,2.984-5.702l9.401-5.428c1.648-0.952,2.984,0.058,2.984,2.256v9.789
						C238.686,244.39,237.35,246.943,235.702,247.895z"/>
					<path style="fill:#BA68C8;" d="M259.313,234.252l-9.401,5.428c-1.648,0.952-2.985-0.059-2.985-2.256v-9.789
						c0-2.198,1.336-4.751,2.985-5.702l9.401-5.428c1.648-0.952,2.985,0.059,2.985,2.256v9.789
						C262.298,230.747,260.961,233.3,259.313,234.252z"/>
					<path style="fill:#BA68C8;" d="M282.924,220.61l-9.401,5.428c-1.648,0.952-2.984-0.059-2.984-2.256v-9.789
						c0-2.198,1.336-4.751,2.984-5.702l9.401-5.428c1.648-0.952,2.985,0.059,2.985,2.256v9.789
						C285.909,217.105,284.573,219.658,282.924,220.61z"/>
				</g>
				<g>
					<path style="fill:#BA68C8;" d="M212.772,286.963l-9.401,5.428c-1.648,0.952-2.984-0.059-2.984-2.256v-9.789
						c0-2.198,1.336-4.751,2.984-5.703l9.401-5.428c1.648-0.952,2.984,0.059,2.984,2.256v9.789
						C215.757,283.458,214.421,286.011,212.772,286.963z"/>
					<path style="fill:#BA68C8;" d="M235.702,273.797l-9.401,5.428c-1.648,0.952-2.984-0.059-2.984-2.256v-9.789
						c0-2.198,1.336-4.751,2.984-5.702l9.401-5.428c1.648-0.952,2.984,0.059,2.984,2.256v9.789
						C238.686,270.292,237.35,272.845,235.702,273.797z"/>
					<path style="fill:#BA68C8;" d="M259.313,260.155l-9.401,5.428c-1.648,0.952-2.985-0.059-2.985-2.256v-9.789
						c0-2.198,1.336-4.751,2.985-5.702l9.401-5.428c1.648-0.952,2.985,0.058,2.985,2.256v9.789
						C262.298,256.65,260.961,259.203,259.313,260.155z"/>
					<path style="fill:#BA68C8;" d="M282.924,246.512l-9.401,5.428c-1.648,0.952-2.984-0.059-2.984-2.256v-9.789
						c0-2.198,1.336-4.751,2.984-5.702l9.401-5.428c1.648-0.952,2.985,0.059,2.985,2.256v9.789
						C285.909,243.008,284.573,245.561,282.924,246.512z"/>
				</g>
			</g>
			<g style="opacity:0.7;">
				<path style="fill:#FFFFFF;" d="M280.648,193.964l-76.164,43.973c-1.688,0.975-3.799-0.244-3.799-2.193v-40.739
					c0-4.24,2.262-8.158,5.934-10.277l74.405-42.958c2.42-1.397,5.446,0.349,5.446,3.144v38.966
					C286.469,188.04,284.25,191.884,280.648,193.964z"/>
				<g>
					<path style="fill:#FFFFFF;" d="M212.772,261.06l-9.401,5.428c-1.648,0.952-2.984-0.059-2.984-2.256v-9.789
						c0-2.198,1.336-4.751,2.984-5.702l9.401-5.428c1.648-0.952,2.984,0.059,2.984,2.256v9.789
						C215.757,257.555,214.421,260.108,212.772,261.06z"/>
					<path style="fill:#FFFFFF;" d="M235.702,247.895l-9.401,5.428c-1.648,0.952-2.984-0.059-2.984-2.256v-9.789
						c0-2.198,1.336-4.751,2.984-5.702l9.401-5.428c1.648-0.952,2.984,0.058,2.984,2.256v9.789
						C238.686,244.39,237.35,246.943,235.702,247.895z"/>
					<path style="fill:#FFFFFF;" d="M259.313,234.252l-9.401,5.428c-1.648,0.952-2.985-0.059-2.985-2.256v-9.789
						c0-2.198,1.336-4.751,2.985-5.702l9.401-5.428c1.648-0.952,2.985,0.059,2.985,2.256v9.789
						C262.298,230.747,260.961,233.3,259.313,234.252z"/>
					<path style="fill:#FFFFFF;" d="M282.924,220.61l-9.401,5.428c-1.648,0.952-2.984-0.059-2.984-2.256v-9.789
						c0-2.198,1.336-4.751,2.984-5.702l9.401-5.428c1.648-0.952,2.985,0.059,2.985,2.256v9.789
						C285.909,217.105,284.573,219.658,282.924,220.61z"/>
				</g>
				<g>
					<path style="fill:#FFFFFF;" d="M212.772,286.963l-9.401,5.428c-1.648,0.952-2.984-0.059-2.984-2.256v-9.789
						c0-2.198,1.336-4.751,2.984-5.703l9.401-5.428c1.648-0.952,2.984,0.059,2.984,2.256v9.789
						C215.757,283.458,214.421,286.011,212.772,286.963z"/>
					<path style="fill:#FFFFFF;" d="M235.702,273.797l-9.401,5.428c-1.648,0.952-2.984-0.059-2.984-2.256v-9.789
						c0-2.198,1.336-4.751,2.984-5.702l9.401-5.428c1.648-0.952,2.984,0.059,2.984,2.256v9.789
						C238.686,270.292,237.35,272.845,235.702,273.797z"/>
					<path style="fill:#FFFFFF;" d="M259.313,260.155l-9.401,5.428c-1.648,0.952-2.985-0.059-2.985-2.256v-9.789
						c0-2.198,1.336-4.751,2.985-5.702l9.401-5.428c1.648-0.952,2.985,0.058,2.985,2.256v9.789
						C262.298,256.65,260.961,259.203,259.313,260.155z"/>
					<path style="fill:#FFFFFF;" d="M282.924,246.512l-9.401,5.428c-1.648,0.952-2.984-0.059-2.984-2.256v-9.789
						c0-2.198,1.336-4.751,2.984-5.702l9.401-5.428c1.648-0.952,2.985,0.059,2.985,2.256v9.789
						C285.909,243.008,284.573,245.561,282.924,246.512z"/>
				</g>
			</g>
			<g>
				<g>
					<path style="fill:#BA68C8;" d="M186.127,315.004l-48.855,28.207c-2.104,1.215-4.733-0.304-4.733-2.733V209.065l53.589-30.939
						V315.004z"/>
					<path style="opacity:0.7;fill:#FFFFFF;" d="M186.127,315.004l-48.855,28.207c-2.104,1.215-4.733-0.304-4.733-2.733V209.065
						l53.589-30.939V315.004z"/>
					<path style="fill:#FAFAFA;" d="M147.327,217.757c0,2.358-1.655,5.224-3.697,6.403c-2.042,1.179-3.697,0.223-3.697-2.134
						c0-2.358,1.655-5.224,3.697-6.403C145.672,214.444,147.327,215.4,147.327,217.757z"/>
					<path style="fill:#FAFAFA;" d="M147.327,231.914c0,2.358-1.655,5.224-3.697,6.403c-2.042,1.179-3.697,0.223-3.697-2.134
						s1.655-5.225,3.697-6.403C145.672,228.601,147.327,229.556,147.327,231.914z"/>
					<path style="fill:#FAFAFA;" d="M147.327,246.071c0,2.358-1.655,5.225-3.697,6.403c-2.042,1.179-3.697,0.223-3.697-2.134
						s1.655-5.225,3.697-6.403C145.672,242.758,147.327,243.713,147.327,246.071z"/>
					<path style="fill:#FAFAFA;" d="M147.327,260.228c0,2.358-1.655,5.224-3.697,6.403c-2.042,1.179-3.697,0.223-3.697-2.134
						s1.655-5.224,3.697-6.403C145.672,256.914,147.327,257.87,147.327,260.228z"/>
					<g>
						<g>
							<path style="fill:#FAFAFA;" d="M155.563,214.342c-0.463,0-0.912-0.24-1.16-0.669c-0.37-0.64-0.15-1.459,0.49-1.828
								l21.662-12.507c0.641-0.37,1.459-0.151,1.828,0.49c0.37,0.64,0.15,1.459-0.49,1.828l-21.662,12.507
								C156.02,214.284,155.79,214.342,155.563,214.342z"/>
						</g>
						<g>
							<path style="fill:#FAFAFA;" d="M155.563,228.499c-0.463,0-0.912-0.24-1.16-0.67c-0.37-0.64-0.15-1.458,0.49-1.828
								l21.662-12.507c0.641-0.37,1.459-0.15,1.828,0.49c0.37,0.64,0.15,1.458-0.49,1.828l-21.662,12.507
								C156.02,228.441,155.79,228.499,155.563,228.499z"/>
						</g>
						<g>
							<path style="fill:#FAFAFA;" d="M155.563,242.656c-0.463,0-0.912-0.24-1.16-0.67c-0.37-0.64-0.15-1.459,0.49-1.828
								l21.662-12.507c0.641-0.37,1.459-0.151,1.828,0.49c0.37,0.64,0.15,1.459-0.49,1.828l-21.662,12.507
								C156.02,242.598,155.79,242.656,155.563,242.656z"/>
						</g>
						<g>
							<path style="fill:#FAFAFA;" d="M155.563,256.812c-0.463,0-0.912-0.24-1.16-0.67c-0.37-0.64-0.15-1.458,0.49-1.828
								l21.662-12.506c0.641-0.37,1.459-0.15,1.828,0.49c0.37,0.64,0.15,1.459-0.49,1.828l-21.662,12.506
								C156.02,256.754,155.79,256.812,155.563,256.812z"/>
						</g>
						<g>
							<path style="fill:#FAFAFA;" d="M143.632,289.984c-0.463,0-0.912-0.24-1.16-0.67c-0.37-0.64-0.15-1.458,0.49-1.828
								l33.593-19.395c0.641-0.37,1.459-0.151,1.828,0.49c0.37,0.64,0.15,1.458-0.49,1.828l-33.593,19.395
								C144.089,289.926,143.859,289.984,143.632,289.984z"/>
						</g>
						<g>
							<path style="fill:#FAFAFA;" d="M143.632,301.795c-0.463,0-0.912-0.24-1.16-0.669c-0.37-0.64-0.15-1.459,0.49-1.828
								l33.593-19.395c0.641-0.37,1.459-0.15,1.828,0.49c0.37,0.64,0.15,1.458-0.49,1.828l-33.593,19.395
								C144.089,301.737,143.859,301.795,143.632,301.795z"/>
						</g>
						<g>
							<path style="fill:#FAFAFA;" d="M143.632,313.606c-0.463,0-0.912-0.24-1.16-0.67c-0.37-0.64-0.15-1.459,0.49-1.828
								l33.593-19.395c0.641-0.369,1.459-0.15,1.828,0.49c0.37,0.64,0.15,1.458-0.49,1.828l-33.593,19.395
								C144.089,313.548,143.859,313.606,143.632,313.606z"/>
						</g>
						<g>
							<path style="fill:#FAFAFA;" d="M143.632,325.417c-0.463,0-0.912-0.24-1.16-0.669c-0.37-0.64-0.15-1.459,0.49-1.828
								l33.593-19.395c0.641-0.371,1.459-0.15,1.828,0.49c0.37,0.64,0.15,1.458-0.49,1.828l-33.593,19.395
								C144.089,325.359,143.859,325.417,143.632,325.417z"/>
						</g>
					</g>
				</g>
				<g>
					<path style="fill:#FAFAFA;" d="M132.733,284.095c-0.154,0-0.304-0.08-0.387-0.223c-0.123-0.214-0.05-0.486,0.163-0.61
						l52.027-30.036c0.213-0.123,0.486-0.051,0.609,0.163c0.123,0.214,0.05,0.486-0.163,0.609l-52.027,30.036
						C132.885,284.076,132.808,284.095,132.733,284.095z"/>
				</g>
			</g>
		</g>
		<path style="fill:#E6E6E6;" d="M136.459,197.755l161.782-93.704c1.906-1.117,4.305,0.257,4.305,2.467v7.06l-170.008,97.957v-5.51
			C132.538,203.21,134.03,199.178,136.459,197.755z"/>
		<g>
			<path style="fill:#F0F0F0;" d="M299.897,104.532c0.227,0,0.44,0.041,0.66,0.135c0.089,0.035,0.184,0.089,0.285,0.164
				c0.687,0.505,1.082,1.614,1.082,3.042v133.994c0,3.215-2.012,7.092-4.393,8.466L136.756,342.97
				c-0.527,0.304-1.02,0.459-1.466,0.459c-0.24,0-0.465-0.047-0.668-0.139l-0.249-0.136c-0.708-0.489-1.113-1.604-1.113-3.066
				V206.089c0-1.472,0.413-3.124,1.164-4.653c0.837-1.723,2.012-3.11,3.224-3.807l160.773-92.635
				C298.953,104.687,299.449,104.532,299.897,104.532 M299.897,103.64c-0.588,0-1.238,0.187-1.921,0.579l-160.774,92.636
				c-1.423,0.819-2.7,2.378-3.581,4.191c-0.779,1.587-1.254,3.377-1.254,5.043v133.999c0,1.864,0.593,3.202,1.542,3.829l0.311,0.169
				c0.326,0.154,0.685,0.234,1.07,0.234c0.587,0,1.233-0.186,1.912-0.579l160.774-92.636c2.671-1.542,4.84-5.682,4.84-9.24V107.873
				c0-1.802-0.553-3.106-1.446-3.761c-0.152-0.113-0.316-0.209-0.491-0.277C300.578,103.706,300.248,103.64,299.897,103.64
				L299.897,103.64z"/>
		</g>
	</g>
</g>
<g id="Crane">
	<g>
		<g>
			<g>
				<polygon style="fill:#37474F;" points="345.205,223.195 345.205,227.423 363.915,220.676 378.622,189.684 371.726,188.767 
					359.284,214.647 				"/>
				<polygon style="fill:#455A64;" points="345.205,223.195 349.835,225.598 349.835,229.825 345.205,227.423 				"/>
				<polygon style="fill:#263238;" points="349.835,225.598 349.835,229.825 365.769,220.676 379.501,191.205 376.357,191.169 
					363.915,217.049 				"/>
			</g>
			<polygon style="fill:#37474F;" points="386.363,252.208 413.489,197.737 422.583,201.34 400.471,258.926 			"/>
			<g>
				<path style="fill:#BA68C8;" d="M422.583,178.099L422.583,178.099c-1.566-0.912-3.734-0.787-6.13,0.596
					c-4.776,2.758-8.648,9.464-8.648,14.979c0,3.014,1.162,5.039,2.99,5.814l-0.003,0.006l10.223,5.93l12.198-21.177
					L422.583,178.099z"/>
				
					<ellipse transform="matrix(0.5 -0.866 0.866 0.5 44.8227 467.5758)" style="fill:#BA68C8;" cx="427.345" cy="194.97" rx="12.23" ry="7.061"/>
				
					<ellipse transform="matrix(0.5 -0.866 0.866 0.5 44.8227 467.5758)" style="opacity:0.3;" cx="427.345" cy="194.97" rx="12.23" ry="7.061"/>
				<path style="fill:#BA68C8;" d="M431.734,192.436c0,2.799-1.965,6.203-4.389,7.602c-2.424,1.399-4.389,0.265-4.389-2.534
					c0-2.799,1.965-6.203,4.389-7.602C429.769,188.503,431.734,189.637,431.734,192.436z"/>
				<path style="opacity:0.6;" d="M431.734,192.436c0,2.799-1.965,6.203-4.389,7.602c-2.424,1.399-4.389,0.265-4.389-2.534
					c0-2.799,1.965-6.203,4.389-7.602C429.769,188.503,431.734,189.637,431.734,192.436z"/>
			</g>
			<path style="fill:#37474F;" d="M380.235,187.618c0.32,0.521,34.554,7.352,34.554,7.352s3.199-0.489,3.199-3.5
				c0-3.011-2.879-3.852-2.879-3.852l-34.128-4.428L380.235,187.618z"/>
			<g>
				<path style="fill:#BA68C8;" d="M377.688,175.029L377.688,175.029c-1.083-0.631-2.582-0.544-4.238,0.412
					c-3.302,1.907-5.979,6.543-5.979,10.356c0,2.084,0.803,3.484,2.067,4.02l-0.002,0.004l7.068,4.1l8.433-14.641L377.688,175.029z"
					/>
				<path style="fill:#BA68C8;" d="M386.96,183.242c0,3.813-2.677,8.45-5.979,10.356c-3.302,1.906-5.979,0.361-5.979-3.452
					c0-3.813,2.677-8.45,5.979-10.356C384.283,177.883,386.96,179.429,386.96,183.242z"/>
				<path style="opacity:0.3;" d="M386.96,183.242c0,3.813-2.677,8.45-5.979,10.356c-3.302,1.906-5.979,0.361-5.979-3.452
					c0-3.813,2.677-8.45,5.979-10.356C384.283,177.883,386.96,179.429,386.96,183.242z"/>
				<path style="fill:#BA68C8;" d="M384.015,184.942c0,1.935-1.359,4.288-3.035,5.256c-1.676,0.968-3.035,0.183-3.035-1.752
					c0-1.935,1.359-4.289,3.035-5.256C382.657,182.222,384.015,183.007,384.015,184.942z"/>
				<path style="opacity:0.6;" d="M384.015,184.942c0,1.935-1.359,4.288-3.035,5.256c-1.676,0.968-3.035,0.183-3.035-1.752
					c0-1.935,1.359-4.289,3.035-5.256C382.657,182.222,384.015,183.007,384.015,184.942z"/>
			</g>
			
				<ellipse transform="matrix(0.3013 -0.9535 0.9535 0.3013 -71.9479 532.5834)" style="fill:#37474F;" cx="327.451" cy="315.388" rx="22.92" ry="13.233"/>
			<polygon style="fill:#37474F;" points="319.354,336.753 330.747,343.777 347.877,301.577 346.565,300.684 			"/>
			
				<ellipse transform="matrix(0.3013 -0.9535 0.9535 0.3013 -70.6422 548.6792)" style="fill:#263238;" cx="339.088" cy="322.545" rx="22.92" ry="13.233"/>
			
				<ellipse transform="matrix(0.3013 -0.9535 0.9535 0.3013 -15.7998 608.1545)" style="fill:#37474F;" cx="407.095" cy="314.859" rx="22.171" ry="13.233"/>
			<polygon style="fill:#37474F;" points="398.64,335.243 410.695,342.727 426.866,299.874 415.093,294.271 			"/>
			<polygon style="fill:#BA68C8;" points="336.44,252.208 380.235,277.083 413.489,257.727 370.156,232.931 			"/>
			<polygon style="opacity:0.2;" points="413.487,257.729 402.135,264.342 402.127,264.342 400.431,265.331 380.232,277.083 
				336.436,252.206 357.103,240.394 358.696,239.482 370.159,232.929 			"/>
			<path style="fill:#BA68C8;" d="M413.487,257.729v57.91l-11.352,6.588l-1.585,0.92l-10.875,6.315
				c-2.702-8.727-10.218-10.61-17.42-4.023c-2.915,2.667-5.352,6.349-7.133,10.44v-13.516l15.11-45.28l20.198-11.752l1.696-0.989
				h0.009L413.487,257.729z"/>
			<path style="opacity:0.4;" d="M413.487,257.729v57.91l-11.352,6.588l-1.585,0.92l-10.875,6.315
				c-2.702-8.727-10.218-10.61-17.42-4.023c-2.915,2.667-5.352,6.349-7.133,10.44v-13.516l15.11-45.28l20.198-11.752l1.696-0.989
				h0.009L413.487,257.729z"/>
			<polygon style="fill:#BA68C8;" points="321.328,297.491 365.123,322.367 365.123,335.876 356.071,330.94 356.071,345.231 
				329.844,330.194 329.844,315.796 321.328,311 			"/>
			<polygon style="fill:#BA68C8;" points="336.44,252.208 321.328,297.491 365.123,322.367 380.235,277.083 			"/>
			<polygon style="opacity:0.2;fill:#FFFFFF;" points="336.44,252.208 321.328,297.491 365.123,322.367 380.235,277.083 			"/>
			<path style="fill:#37474F;" d="M365.123,335.876l-9.042-4.931c-2.879,5.715-4.429,12.201-3.879,17.819
				c1.007,10.287,8.637,13.749,17.042,7.733c5.852-4.188,10.529-11.867,12.495-19.618L365.123,335.876z"/>
			<polygon style="fill:#37474F;" points="357.177,358.333 369.233,365.817 386.363,323.617 385.052,322.724 			"/>
			
				<ellipse transform="matrix(0.3013 -0.9535 0.9535 0.3013 -64.8318 598.9441)" style="fill:#37474F;" cx="376.294" cy="343.712" rx="22.92" ry="13.233"/>
			
				<ellipse transform="matrix(0.3013 -0.9535 0.9535 0.3013 -64.7683 600.7756)" style="fill:#455A64;" cx="377.574" cy="344.585" rx="22.92" ry="13.233"/>
			<g>
				<path style="fill:#263238;" d="M384.755,339.527c1.007,4.556-0.967,10.803-4.409,13.953c-3.442,3.15-7.049,2.01-8.056-2.546
					c-1.007-4.556,0.967-10.803,4.409-13.953C380.142,333.832,383.748,334.971,384.755,339.527z"/>
				<path style="fill:#BA68C8;" d="M383.578,340.159c0.647,3.888-1.069,9.318-3.833,12.128c-2.764,2.81-5.529,1.936-6.176-1.952
					c-0.647-3.888,1.069-9.318,3.833-12.128C380.165,335.397,382.931,336.27,383.578,340.159z"/>
				<path style="fill:#263238;" d="M381.956,341.722c0.366,2.603-0.793,6.269-2.588,8.19s-3.546,1.367-3.911-1.236
					c-0.366-2.603,0.793-6.27,2.588-8.19C379.839,338.565,381.59,339.119,381.956,341.722z"/>
			</g>
			
				<ellipse transform="matrix(0.3013 -0.9535 0.9535 0.3013 -13.8459 622.3479)" style="fill:#37474F;" cx="417.757" cy="320.622" rx="22.92" ry="13.233"/>
			
				<ellipse transform="matrix(0.3013 -0.9535 0.9535 0.3013 -13.7842 624.1766)" style="fill:#455A64;" cx="419.036" cy="321.494" rx="22.92" ry="13.233"/>
			<g>
				<path style="fill:#263238;" d="M426.217,316.437c1.007,4.556-0.967,10.803-4.409,13.953c-3.442,3.15-7.049,2.01-8.056-2.546
					c-1.007-4.556,0.967-10.803,4.409-13.953C421.604,310.742,425.211,311.881,426.217,316.437z"/>
				
					<ellipse transform="matrix(0.3013 -0.9535 0.9535 0.3013 -13.7181 625.5914)" style="fill:#BA68C8;" cx="420.035" cy="322.157" rx="8.994" ry="4.58"/>
				<path style="fill:#263238;" d="M423.418,318.632c0.365,2.603-0.793,6.27-2.588,8.19c-1.795,1.92-3.546,1.367-3.911-1.236
					c-0.365-2.603,0.793-6.27,2.588-8.19S423.053,316.029,423.418,318.632z"/>
			</g>
			<polygon style="fill:#37474F;" points="375.613,278.685 369.179,297.963 367.5,302.983 364.082,313.235 362.872,316.857 
				356.796,313.406 325.953,295.892 338.694,257.712 343.893,260.669 352.398,265.501 359.284,269.413 362.659,271.331 			"/>
			<g>
				<path style="fill:#BA68C8;" d="M402.135,264.342v57.884l-1.585,0.92c-0.077-0.119-0.119-0.264-0.119-0.426v-57.39
					l-43.013-24.621c-0.136-0.077-0.247-0.188-0.315-0.315l1.594-0.912l43.43,24.86H402.135z"/>
			</g>
			<g style="opacity:0.5;">
				<path d="M402.135,264.342v57.884l-1.585,0.92c-0.077-0.119-0.119-0.264-0.119-0.426v-57.39l-43.013-24.621
					c-0.136-0.077-0.247-0.188-0.315-0.315l1.594-0.912l43.43,24.86H402.135z"/>
			</g>
			<polygon style="fill:#455A64;" points="364.082,313.235 362.872,316.857 356.796,313.406 343.893,260.669 352.398,265.501 			"/>
			<polygon style="fill:#455A64;" points="369.179,297.963 367.5,302.983 359.284,269.413 362.659,271.331 			"/>
			<polygon style="fill:#37474F;" points="397.672,302.644 369.179,319.612 382.408,279.971 397.672,271.087 			"/>
			<polygon style="fill:#37474F;" points="410.791,295.03 405.111,298.309 405.111,266.688 410.791,263.408 			"/>
			<g>
				<g>
					<path style="fill:#BA68C8;" d="M277.088,203.854v57.315c0,0.92,0.338,1.538,0.855,1.741l0.014,0.005l0.002,0.002l2.194,1.202
						l-0.012-1.953l0.311-58.925l-2.872-1.451C277.274,202.447,277.088,203.176,277.088,203.854z"/>
					<path style="fill:#BA68C8;" d="M277.58,201.79l2.872,1.451l69.494-40.737l1.656-0.963l-2.289-1.289l-0.065-0.039v-0.002
						c-0.365-0.22-0.842-0.205-1.369,0.099l-68.723,39.597C278.524,200.272,277.959,200.974,277.58,201.79z"/>
					<path style="opacity:0.2;fill:#FFFFFF;" d="M277.58,201.79l2.872,1.451l69.494-40.737l1.656-0.963l-2.289-1.289l-0.065-0.039
						v-0.002c-0.365-0.22-0.842-0.205-1.369,0.099l-68.723,39.597C278.524,200.272,277.959,200.974,277.58,201.79z"/>
					<path style="fill:#BA68C8;" d="M279.58,205.104v56.935c0,0.792,0.252,1.361,0.655,1.627l0.132,0.072
						c0.35,0.166,0.789,0.13,1.267-0.146l68.311-39.36c1.135-0.655,2.056-2.414,2.056-3.926v-56.933c0-0.766-0.235-1.32-0.614-1.598
						c-0.065-0.048-0.134-0.089-0.209-0.118c-0.343-0.146-0.77-0.103-1.233,0.163l-68.311,39.36
						c-0.605,0.348-1.147,1.01-1.521,1.781C279.782,203.636,279.58,204.396,279.58,205.104z"/>
					<path style="opacity:0.2;" d="M279.58,205.104v56.935c0,0.792,0.252,1.361,0.655,1.627l0.132,0.072
						c0.35,0.166,0.789,0.13,1.267-0.146l68.311-39.36c1.135-0.655,2.056-2.414,2.056-3.926v-56.933c0-0.766-0.235-1.32-0.614-1.598
						c-0.065-0.048-0.134-0.089-0.209-0.118c-0.343-0.146-0.77-0.103-1.233,0.163l-68.311,39.36
						c-0.605,0.348-1.147,1.01-1.521,1.781C279.782,203.636,279.58,204.396,279.58,205.104z"/>
					
						<text transform="matrix(0.866 -0.5 0 1 291.8989 241.9949)" style="fill:#FAFAFA; font-family:'Montserrat-Bold'; font-size:38.564px;">&lt;/&gt;</text>
				</g>
				<g>
					<path style="fill:#BA68C8;" d="M351.035,161.721c0.097,0,0.188,0.018,0.282,0.058c0.038,0.015,0.078,0.038,0.122,0.07
						c0.294,0.216,0.462,0.69,0.462,1.3v57.276c0,1.374-0.86,3.032-1.878,3.619L281.3,263.642c-0.225,0.13-0.436,0.196-0.627,0.196
						c-0.106,0-0.205-0.021-0.275-0.053l-0.105-0.056c-0.31-0.205-0.488-0.685-0.488-1.319v-57.278c0-0.629,0.176-1.335,0.497-1.989
						c0.358-0.736,0.86-1.33,1.378-1.628l68.723-39.597C350.632,161.787,350.844,161.721,351.035,161.721 M351.035,161.339
						c-0.252,0-0.529,0.08-0.821,0.248l-68.723,39.598c-0.608,0.35-1.154,1.016-1.531,1.791c-0.333,0.678-0.536,1.444-0.536,2.156
						v57.278c0,0.797,0.254,1.369,0.659,1.637l0.133,0.072c0.139,0.066,0.293,0.1,0.457,0.1c0.251,0,0.527-0.08,0.817-0.247
						l68.723-39.597c1.142-0.659,2.069-2.428,2.069-3.95v-57.276c0-0.77-0.237-1.328-0.618-1.608
						c-0.065-0.048-0.135-0.089-0.21-0.118C351.326,161.368,351.185,161.339,351.035,161.339L351.035,161.339z"/>
				</g>
			</g>
			<g>
				<polygon style="fill:#455A64;" points="356.533,158.4 372.396,178.541 376.254,180.62 359.941,156.468 				"/>
				<polygon style="fill:#263238;" points="346.043,164.348 346.043,167.503 360.558,159.242 376.254,180.62 377.995,178.861 
					361.358,155.665 				"/>
				<polygon style="fill:#37474F;" points="361.358,155.665 356.071,152.453 340.759,161.296 346.043,164.348 				"/>
				<polygon style="fill:#455A64;" points="340.759,161.296 340.759,164.348 346.043,167.503 346.043,164.348 				"/>
			</g>
			<g>
				<path style="fill:none;stroke:#455A64;stroke-width:0.8522;stroke-miterlimit:10;" d="M349.429,333.853l-14.238-8.22
					c-0.975-0.563-1.576-1.603-1.576-2.729v-10.522c0-0.701,0.759-1.138,1.365-0.788l14.238,8.22
					c0.975,0.563,1.576,1.603,1.576,2.729v10.522C350.794,333.766,350.036,334.204,349.429,333.853z"/>
				
					<line style="fill:none;stroke:#455A64;stroke-width:0.8522;stroke-miterlimit:10;" x1="333.616" y1="313.399" x2="350.781" y2="323.309"/>
				
					<line style="fill:none;stroke:#455A64;stroke-width:0.8522;stroke-miterlimit:10;" x1="333.616" y1="316.312" x2="350.781" y2="326.222"/>
				
					<line style="fill:none;stroke:#455A64;stroke-width:0.8522;stroke-miterlimit:10;" x1="333.616" y1="319.225" x2="350.781" y2="329.135"/>
				
					<line style="fill:none;stroke:#455A64;stroke-width:0.8522;stroke-miterlimit:10;" x1="333.616" y1="322.138" x2="350.781" y2="332.048"/>
			</g>
			<polygon style="fill:#FFFFFF;" points="327.421,310.1 321.328,306.582 321.328,302.983 327.421,306.501 			"/>
			<polygon style="fill:#FFFFFF;" points="365.122,331.298 359.029,327.78 359.029,324.18 365.122,327.698 			"/>
		</g>
		<g>
			<g>
				<path style="fill:#BA68C8;" d="M294.549,144.038v31.517c0,0.506,0.186,0.846,0.47,0.957l0.008,0.003l0.001,0.001l1.207,0.661
					l-0.007-1.074l0.171-32.403l-1.58-0.798C294.651,143.264,294.549,143.665,294.549,144.038z"/>
				<path style="fill:#BA68C8;" d="M294.82,142.903l1.58,0.798l38.214-22.401l0.911-0.53l-1.259-0.709l-0.036-0.021v-0.001
					c-0.201-0.121-0.463-0.113-0.753,0.054l-37.791,21.774C295.339,142.068,295.028,142.455,294.82,142.903z"/>
				<path style="opacity:0.2;fill:#FFFFFF;" d="M294.82,142.903l1.58,0.798l38.214-22.401l0.911-0.53l-1.259-0.709l-0.036-0.021
					v-0.001c-0.201-0.121-0.463-0.113-0.753,0.054l-37.791,21.774C295.339,142.068,295.028,142.455,294.82,142.903z"/>
				<path style="fill:#BA68C8;" d="M295.92,144.725v31.309c0,0.435,0.139,0.748,0.36,0.895l0.073,0.04
					c0.193,0.091,0.434,0.071,0.697-0.081l37.564-21.644c0.624-0.36,1.131-1.327,1.131-2.159v-31.307
					c0-0.421-0.129-0.726-0.338-0.879c-0.036-0.026-0.074-0.049-0.115-0.065c-0.189-0.08-0.424-0.057-0.678,0.09l-37.564,21.644
					c-0.332,0.191-0.631,0.555-0.837,0.979C296.03,143.918,295.92,144.336,295.92,144.725z"/>
				<path style="opacity:0.2;" d="M295.92,144.725v31.309c0,0.435,0.139,0.748,0.36,0.895l0.073,0.04
					c0.193,0.091,0.434,0.071,0.697-0.081l37.564-21.644c0.624-0.36,1.131-1.327,1.131-2.159v-31.307
					c0-0.421-0.129-0.726-0.338-0.879c-0.036-0.026-0.074-0.049-0.115-0.065c-0.189-0.08-0.424-0.057-0.678,0.09l-37.564,21.644
					c-0.332,0.191-0.631,0.555-0.837,0.979C296.03,143.918,295.92,144.336,295.92,144.725z"/>
				
					<text transform="matrix(0.866 -0.5 0 1 301.5576 163.3937)" style="fill:#FAFAFA; font-family:'Montserrat-Bold'; font-size:16.5912px;">C++</text>
			</g>
			<g>
				<path style="fill:#BA68C8;" d="M335.212,120.869c0.053,0,0.104,0.01,0.155,0.032c0.021,0.008,0.044,0.021,0.067,0.039
					c0.161,0.118,0.254,0.379,0.254,0.715v31.496c0,0.756-0.473,1.667-1.033,1.99l-37.791,21.775
					c-0.124,0.071-0.24,0.108-0.344,0.108c-0.058,0-0.113-0.012-0.151-0.029l-0.058-0.031c-0.171-0.113-0.268-0.377-0.268-0.725
					V144.74c0-0.346,0.097-0.734,0.274-1.094c0.197-0.405,0.473-0.731,0.758-0.895l37.791-21.775
					C334.991,120.905,335.107,120.869,335.212,120.869 M335.212,120.659c-0.138,0-0.291,0.044-0.451,0.136L296.97,142.57
					c-0.335,0.192-0.635,0.559-0.842,0.985c-0.183,0.373-0.295,0.794-0.295,1.186v31.497c0,0.438,0.139,0.753,0.362,0.9l0.073,0.04
					c0.077,0.036,0.161,0.055,0.251,0.055c0.138,0,0.29-0.044,0.449-0.136l37.791-21.775c0.628-0.363,1.138-1.335,1.138-2.172
					v-31.496c0-0.423-0.13-0.73-0.34-0.884c-0.036-0.027-0.074-0.049-0.115-0.065C335.373,120.675,335.295,120.659,335.212,120.659
					L335.212,120.659z"/>
			</g>
		</g>
		<g>
			<g>
				<path style="fill:#BA68C8;" d="M294.549,95.132v31.399c0,0.504,0.185,0.842,0.468,0.954l0.008,0.003l0.001,0.001l1.202,0.659
					l-0.007-1.07l0.171-32.282l-1.574-0.795C294.651,94.361,294.549,94.76,294.549,95.132z"/>
				<path style="fill:#BA68C8;" d="M294.819,94.001l1.574,0.795l38.072-22.317l0.907-0.528l-1.254-0.706l-0.036-0.021v-0.001
					c-0.2-0.12-0.461-0.112-0.75,0.054l-37.65,21.693C295.336,93.169,295.026,93.554,294.819,94.001z"/>
				<path style="opacity:0.2;fill:#FFFFFF;" d="M294.819,94.001l1.574,0.795l38.072-22.317l0.907-0.528l-1.254-0.706l-0.036-0.021
					v-0.001c-0.2-0.12-0.461-0.112-0.75,0.054l-37.65,21.693C295.336,93.169,295.026,93.554,294.819,94.001z"/>
				<path style="fill:#BA68C8;" d="M295.914,95.816v31.191c0,0.434,0.138,0.745,0.359,0.891l0.072,0.039
					c0.192,0.091,0.432,0.071,0.694-0.08l37.424-21.563c0.622-0.359,1.127-1.322,1.127-2.151v-31.19
					c0-0.419-0.129-0.723-0.337-0.876c-0.035-0.026-0.074-0.049-0.114-0.064c-0.188-0.08-0.422-0.056-0.676,0.089L297.04,93.667
					c-0.331,0.191-0.628,0.553-0.833,0.976C296.025,95.012,295.914,95.428,295.914,95.816z"/>
				<path style="opacity:0.2;" d="M295.914,95.816v31.191c0,0.434,0.138,0.745,0.359,0.891l0.072,0.039
					c0.192,0.091,0.432,0.071,0.694-0.08l37.424-21.563c0.622-0.359,1.127-1.322,1.127-2.151v-31.19
					c0-0.419-0.129-0.723-0.337-0.876c-0.035-0.026-0.074-0.049-0.114-0.064c-0.188-0.08-0.422-0.056-0.676,0.089L297.04,93.667
					c-0.331,0.191-0.628,0.553-0.833,0.976C296.025,95.012,295.914,95.428,295.914,95.816z"/>
				
					<text transform="matrix(0.866 -0.5 0 1 304.5741 113.1855)" style="fill:#FAFAFA; font-family:'Montserrat-Bold'; font-size:21.127px;">{  }</text>
			</g>
			<g>
				<path style="fill:#BA68C8;" d="M335.061,72.049c0.053,0,0.103,0.01,0.155,0.031c0.021,0.008,0.043,0.021,0.067,0.039
					c0.161,0.118,0.253,0.378,0.253,0.712v31.378c0,0.753-0.471,1.661-1.029,1.983l-37.65,21.693
					c-0.123,0.071-0.239,0.108-0.343,0.108c-0.058,0-0.112-0.012-0.15-0.029l-0.058-0.031c-0.17-0.112-0.267-0.375-0.267-0.722
					V95.831c0-0.345,0.097-0.732,0.273-1.09c0.196-0.403,0.471-0.728,0.755-0.892l37.649-21.693
					C334.839,72.085,334.956,72.049,335.061,72.049 M335.061,71.84c-0.138,0-0.29,0.044-0.45,0.136l-37.65,21.693
					c-0.333,0.192-0.632,0.557-0.838,0.981c-0.183,0.372-0.294,0.791-0.294,1.181v31.379c0,0.437,0.139,0.75,0.361,0.897l0.073,0.04
					c0.076,0.036,0.16,0.055,0.25,0.055c0.138,0,0.289-0.044,0.448-0.135l37.65-21.693c0.626-0.361,1.133-1.33,1.133-2.164V72.831
					c0-0.422-0.13-0.727-0.339-0.881c-0.036-0.026-0.074-0.049-0.115-0.065C335.22,71.856,335.143,71.84,335.061,71.84
					L335.061,71.84z"/>
			</g>
		</g>
	</g>
</g>
<g id="Gears">
	<g>
		<g>
			<path style="fill:#BA68C8;" d="M220.359,95.939c0.066-0.921,0.459-1.789,1.109-2.445l3.546-3.58
				c0.538-0.544,0.769-1.321,0.613-2.071l-0.897-4.326c-0.058-0.278-0.235-0.482-0.457-0.598l0.005-0.004l-5.025-2.455l-0.122-0.061
				c-0.281-0.114-0.622-0.081-0.886,0.138l-1.463,1.203l1.494-4.54c0.182-0.553-0.089-1.124-0.577-1.366h0.018l-5.021-2.455
				l-0.008-0.004c-0.122-0.065-0.256-0.114-0.402-0.13l-3.228-0.407c-0.459-0.057-0.906,0.094-1.228,0.394v0.004
				c-0.151,0.134-0.277,0.305-0.362,0.5l-2.39,5.451c-0.228,0.528-0.616,0.963-1.096,1.263l-0.172-0.444
				c-0.086-0.223-0.251-0.381-0.445-0.468l0.001-0.001l-4.935-2.411l-0.158-0.077l-0.004-0.004
				c-0.301-0.118-0.659-0.065-0.911,0.191l-4.232,4.277c-0.301,0.301-0.516,0.667-0.642,1.061c-0.11,0.37-0.142,0.764-0.081,1.159
				l0.606,3.895c0.073,0.48-0.029,0.972-0.293,1.382l-2.407,3.752c-0.138,0.219-0.317,0.407-0.52,0.549
				c-0.333,0.24-0.74,0.374-1.163,0.374h-2.744c-0.167,0-0.333,0.02-0.488,0.065c-0.585,0.154-1.069,0.589-1.285,1.175l-2.423,6.614
				c-0.177,0.481,0.032,1.005,0.458,1.245l-0.001,0l0.003,0.001c0.006,0.003,0.012,0.006,0.018,0.008l3.581,1.755
				c0.041,0.154,0.057,0.316,0.039,0.482l-0.402,3.712c-0.028,0.236-0.085,0.468-0.179,0.687c-0.122,0.309-0.305,0.589-0.537,0.829
				l-3.679,3.789c-0.26,0.268-0.443,0.59-0.549,0.935c-0.114,0.374-0.13,0.772-0.045,1.163l1.041,4.712
				c0.05,0.23,0.206,0.394,0.395,0.477l-0.004,0.003l5.001,2.447v-0.002c0.232,0.128,0.533,0.124,0.765-0.067l1.623-1.338
				l-1.362,4.704c-0.033,0.105-0.045,0.215-0.041,0.321l0,0l0,0.001c0.01,0.409,0.255,0.773,0.622,0.946l0.01,0.016l4.865,2.365
				l-0.002-0.006c0.143,0.105,0.31,0.18,0.501,0.204l2.812,0.352c0.772,0.097,1.517-0.322,1.835-1.033l2.395-5.343
				c0.242-0.54,0.654-0.979,1.164-1.272l0.123,0.353c0.089,0.258,0.285,0.432,0.513,0.515l-0.004,0.004l4.942,2.423
				c0.007,0.004,0.015,0.007,0.022,0.011l0.025,0.013v-0.003c0.294,0.136,0.66,0.107,0.929-0.14l4.303-3.938
				c0.521-0.477,0.774-1.181,0.675-1.881l-0.61-4.303c-0.103-0.728,0.06-1.468,0.459-2.085l1.971-3.046
				c0.508-0.785,1.379-1.259,2.313-1.259h2.62c0.655,0,1.241-0.408,1.469-1.022l2.375-6.408c0.225-0.606-0.034-1.26-0.563-1.571
				h0.007l-0.028-0.013c-0.032-0.018-0.065-0.033-0.099-0.048l-3.294-1.608c-0.035-0.135-0.051-0.276-0.04-0.421L220.359,95.939z
				 M204.563,92.86c1.224-0.868,2.416-1.371,3.522-1.552c0.489,0.906,0.82,2.058,0.95,3.454c0.536,5.764-2.858,13.147-7.582,16.497
				c-1.226,0.868-2.394,1.389-3.464,1.595c-0.523-0.929-0.876-2.099-1.006-3.497C196.446,103.592,199.84,96.207,204.563,92.86z"/>
			<path style="opacity:0.3;" d="M220.359,95.939c0.066-0.921,0.459-1.789,1.109-2.445l3.546-3.58
				c0.538-0.544,0.769-1.321,0.613-2.071l-0.897-4.326c-0.058-0.278-0.235-0.482-0.457-0.598l0.005-0.004l-5.025-2.455l-0.122-0.061
				c-0.281-0.114-0.622-0.081-0.886,0.138l-1.463,1.203l1.494-4.54c0.182-0.553-0.089-1.124-0.577-1.366h0.018l-5.021-2.455
				l-0.008-0.004c-0.122-0.065-0.256-0.114-0.402-0.13l-3.228-0.407c-0.459-0.057-0.906,0.094-1.228,0.394v0.004
				c-0.151,0.134-0.277,0.305-0.362,0.5l-2.39,5.451c-0.228,0.528-0.616,0.963-1.096,1.263l-0.172-0.444
				c-0.086-0.223-0.251-0.381-0.445-0.468l0.001-0.001l-4.935-2.411l-0.158-0.077l-0.004-0.004
				c-0.301-0.118-0.659-0.065-0.911,0.191l-4.232,4.277c-0.301,0.301-0.516,0.667-0.642,1.061c-0.11,0.37-0.142,0.764-0.081,1.159
				l0.606,3.895c0.073,0.48-0.029,0.972-0.293,1.382l-2.407,3.752c-0.138,0.219-0.317,0.407-0.52,0.549
				c-0.333,0.24-0.74,0.374-1.163,0.374h-2.744c-0.167,0-0.333,0.02-0.488,0.065c-0.585,0.154-1.069,0.589-1.285,1.175l-2.423,6.614
				c-0.177,0.481,0.032,1.005,0.458,1.245l-0.001,0l0.003,0.001c0.006,0.003,0.012,0.006,0.018,0.008l3.581,1.755
				c0.041,0.154,0.057,0.316,0.039,0.482l-0.402,3.712c-0.028,0.236-0.085,0.468-0.179,0.687c-0.122,0.309-0.305,0.589-0.537,0.829
				l-3.679,3.789c-0.26,0.268-0.443,0.59-0.549,0.935c-0.114,0.374-0.13,0.772-0.045,1.163l1.041,4.712
				c0.05,0.23,0.206,0.394,0.395,0.477l-0.004,0.003l5.001,2.447v-0.002c0.232,0.128,0.533,0.124,0.765-0.067l1.623-1.338
				l-1.362,4.704c-0.033,0.105-0.045,0.215-0.041,0.321l0,0l0,0.001c0.01,0.409,0.255,0.773,0.622,0.946l0.01,0.016l4.865,2.365
				l-0.002-0.006c0.143,0.105,0.31,0.18,0.501,0.204l2.812,0.352c0.772,0.097,1.517-0.322,1.835-1.033l2.395-5.343
				c0.242-0.54,0.654-0.979,1.164-1.272l0.123,0.353c0.089,0.258,0.285,0.432,0.513,0.515l-0.004,0.004l4.942,2.423
				c0.007,0.004,0.015,0.007,0.022,0.011l0.025,0.013v-0.003c0.294,0.136,0.66,0.107,0.929-0.14l4.303-3.938
				c0.521-0.477,0.774-1.181,0.675-1.881l-0.61-4.303c-0.103-0.728,0.06-1.468,0.459-2.085l1.971-3.046
				c0.508-0.785,1.379-1.259,2.313-1.259h2.62c0.655,0,1.241-0.408,1.469-1.022l2.375-6.408c0.225-0.606-0.034-1.26-0.563-1.571
				h0.007l-0.028-0.013c-0.032-0.018-0.065-0.033-0.099-0.048l-3.294-1.608c-0.035-0.135-0.051-0.276-0.04-0.421L220.359,95.939z
				 M204.563,92.86c1.224-0.868,2.416-1.371,3.522-1.552c0.489,0.906,0.82,2.058,0.95,3.454c0.536,5.764-2.858,13.147-7.582,16.497
				c-1.226,0.868-2.394,1.389-3.464,1.595c-0.523-0.929-0.876-2.099-1.006-3.497C196.446,103.592,199.84,96.207,204.563,92.86z"/>
			<path style="opacity:0.2;" d="M190.904,112.043l-5.439,5.529l-5.025-2.59c0.106-0.345,0.289-0.667,0.549-0.935l3.679-3.789
				c0.232-0.24,0.415-0.52,0.537-0.829L190.904,112.043z"/>
			<path style="opacity:0.2;" d="M194.859,95.778l-0.11,0.618h-4.716l-4.639-2.646c0.155-0.045,0.321-0.065,0.488-0.065h2.744
				c0.423,0,0.829-0.134,1.163-0.374L194.859,95.778z"/>
			<path style="opacity:0.2;" d="M203.368,79.538l-2.126,2.094h-0.004l-3.764,3.703l-4.984-2.752l-0.004-0.008
				c0.126-0.394,0.341-0.76,0.642-1.061l4.232-4.277c0.252-0.256,0.61-0.309,0.911-0.191l0.004,0.004l0.158,0.077L203.368,79.538z"
				/>
			<path style="opacity:0.2;" d="M217.718,75.834h-4.951l-4.935-2.598v-0.004c0.321-0.301,0.768-0.451,1.228-0.394l3.228,0.407
				c0.146,0.016,0.281,0.065,0.402,0.13l0.008,0.004L217.718,75.834z"/>
			<path style="fill:#BA68C8;" d="M221.469,93.495l3.546-3.58c0.538-0.544,0.769-1.321,0.613-2.071l-0.897-4.326
				c-0.135-0.653-0.916-0.928-1.431-0.504l-3.683,3.029c-0.397,0.326-0.978,0.293-1.335-0.077l-1.063-1.102
				c-0.671-0.696-0.902-1.706-0.6-2.624l1.657-5.038c0.223-0.678-0.228-1.392-0.936-1.481l-3.227-0.407
				c-0.671-0.085-1.317,0.282-1.589,0.902l-2.39,5.451c-0.291,0.665-0.826,1.192-1.495,1.475l-2.147,0.907
				c-0.527,0.223-1.135-0.035-1.341-0.569l-1.341-3.471c-0.222-0.576-0.964-0.731-1.399-0.292l-4.232,4.273
				c-0.579,0.585-0.846,1.409-0.72,2.222l0.604,3.893c0.075,0.481-0.029,0.973-0.292,1.383l-2.405,3.754
				c-0.368,0.575-1.004,0.922-1.686,0.922h-2.741c-0.794,0-1.502,0.495-1.775,1.241l-2.422,6.613
				c-0.202,0.553,0.101,1.162,0.665,1.333l2.512,0.762c0.604,0.183,0.992,0.77,0.923,1.398l-0.405,3.71
				c-0.062,0.572-0.314,1.106-0.715,1.519l-3.678,3.788c-0.538,0.554-0.762,1.342-0.595,2.096l1.04,4.713
				c0.11,0.5,0.71,0.707,1.105,0.381l3.616-2.98c0.602-0.496,1.491-0.408,1.984,0.196l0.915,1.12c0.45,0.551,0.6,1.288,0.403,1.971
				l-1.603,5.536c-0.184,0.636,0.244,1.287,0.901,1.369l2.812,0.352c0.772,0.097,1.517-0.322,1.835-1.033l2.395-5.343
				c0.272-0.607,0.751-1.097,1.352-1.383l2.096-0.998c0.697-0.332,1.528,0.015,1.782,0.744l1.112,3.194
				c0.2,0.575,0.924,0.758,1.374,0.347l4.303-3.938c0.522-0.477,0.774-1.181,0.675-1.881l-0.61-4.303
				c-0.103-0.728,0.06-1.468,0.459-2.085l1.971-3.046c0.508-0.785,1.379-1.259,2.313-1.259h2.62c0.655,0,1.241-0.408,1.469-1.022
				l2.375-6.408c0.266-0.718-0.142-1.51-0.882-1.709l-2.162-0.583c-0.61-0.164-1.018-0.739-0.973-1.369l0.233-3.263
				C220.425,95.018,220.819,94.151,221.469,93.495z M206.507,113.733c-4.723,3.347-8.987,1.387-9.524-4.377
				c-0.537-5.764,2.857-13.149,7.581-16.496c4.723-3.347,8.987-1.387,9.524,4.376C214.624,103,211.23,110.386,206.507,113.733z"/>
		</g>
	</g>
	<g>
		<g>
			<path style="fill:#BA68C8;" d="M120.881,172.486c0.114-1.596,0.796-3.099,1.922-4.235l6.144-6.202
				c0.933-0.942,1.332-2.289,1.063-3.588l-1.555-7.496c-0.1-0.482-0.408-0.835-0.791-1.036l0.009-0.007l-8.706-4.254l-0.211-0.106
				c-0.486-0.197-1.078-0.141-1.535,0.239l-2.535,2.085l2.588-7.867c0.315-0.959-0.153-1.947-1-2.367h0.032l-8.699-4.254
				l-0.014-0.007c-0.211-0.113-0.444-0.197-0.697-0.225l-5.592-0.704c-0.796-0.099-1.571,0.162-2.127,0.683v0.007
				c-0.261,0.232-0.479,0.528-0.627,0.866l-4.142,9.445c-0.396,0.914-1.067,1.668-1.9,2.188l-0.297-0.769
				c-0.149-0.386-0.435-0.66-0.771-0.81l0.002-0.002l-8.551-4.177l-0.274-0.134l-0.007-0.007c-0.521-0.204-1.141-0.113-1.578,0.331
				l-7.332,7.41c-0.521,0.521-0.894,1.155-1.113,1.838c-0.19,0.641-0.247,1.324-0.141,2.007l1.049,6.748
				c0.127,0.831-0.049,1.683-0.507,2.395l-4.17,6.501c-0.24,0.38-0.549,0.704-0.902,0.951c-0.577,0.416-1.282,0.648-2.014,0.648
				h-4.754c-0.289,0-0.577,0.035-0.845,0.113c-1.014,0.268-1.852,1.021-2.226,2.035l-4.198,11.46
				c-0.307,0.834,0.055,1.741,0.794,2.158l-0.001,0l0.005,0.002c0.01,0.006,0.02,0.01,0.03,0.015l6.205,3.04
				c0.072,0.266,0.099,0.548,0.067,0.835l-0.697,6.43c-0.049,0.409-0.148,0.81-0.31,1.19c-0.211,0.535-0.528,1.021-0.93,1.437
				l-6.374,6.564c-0.451,0.465-0.768,1.021-0.951,1.62c-0.197,0.648-0.225,1.338-0.078,2.014l1.803,8.163
				c0.087,0.398,0.356,0.682,0.685,0.826l-0.007,0.005l8.665,4.24v-0.003c0.403,0.221,0.924,0.215,1.326-0.116l2.812-2.318
				l-2.359,8.15c-0.056,0.183-0.077,0.373-0.071,0.556l0,0l0,0.001c0.017,0.709,0.441,1.339,1.078,1.639l0.018,0.027l8.428,4.098
				l-0.004-0.011c0.247,0.182,0.538,0.313,0.868,0.354l4.872,0.609c1.338,0.167,2.628-0.558,3.18-1.789l4.15-9.258
				c0.42-0.936,1.134-1.696,2.017-2.205l0.213,0.612c0.155,0.448,0.495,0.749,0.89,0.892l-0.007,0.008l8.562,4.198
				c0.013,0.007,0.025,0.012,0.038,0.019l0.044,0.022v-0.005c0.51,0.236,1.144,0.185,1.61-0.242l7.455-6.823
				c0.904-0.827,1.341-2.047,1.169-3.26l-1.057-7.456c-0.179-1.261,0.104-2.544,0.796-3.613l3.414-5.277
				c0.88-1.359,2.389-2.181,4.008-2.181h4.54c1.135,0,2.15-0.706,2.545-1.771l4.115-11.103c0.389-1.05-0.059-2.183-0.976-2.721
				h0.012l-0.048-0.023c-0.055-0.031-0.113-0.057-0.171-0.084l-5.707-2.786c-0.06-0.234-0.088-0.479-0.07-0.73L120.881,172.486z
				 M93.513,167.151c2.121-1.503,4.186-2.376,6.102-2.689c0.847,1.569,1.42,3.566,1.645,5.985
				c0.93,9.987-4.951,22.778-13.136,28.582c-2.123,1.504-4.147,2.406-6.002,2.763c-0.905-1.61-1.517-3.636-1.743-6.06
				C79.449,185.746,85.33,172.95,93.513,167.151z"/>
			<path style="opacity:0.3;" d="M120.881,172.486c0.114-1.596,0.796-3.099,1.922-4.235l6.144-6.202
				c0.933-0.942,1.332-2.289,1.063-3.588l-1.555-7.496c-0.1-0.482-0.408-0.835-0.791-1.036l0.009-0.007l-8.706-4.254l-0.211-0.106
				c-0.486-0.197-1.078-0.141-1.535,0.239l-2.535,2.085l2.588-7.867c0.315-0.959-0.153-1.947-1-2.367h0.032l-8.699-4.254
				l-0.014-0.007c-0.211-0.113-0.444-0.197-0.697-0.225l-5.592-0.704c-0.796-0.099-1.571,0.162-2.127,0.683v0.007
				c-0.261,0.232-0.479,0.528-0.627,0.866l-4.142,9.445c-0.396,0.914-1.067,1.668-1.9,2.188l-0.297-0.769
				c-0.149-0.386-0.435-0.66-0.771-0.81l0.002-0.002l-8.551-4.177l-0.274-0.134l-0.007-0.007c-0.521-0.204-1.141-0.113-1.578,0.331
				l-7.332,7.41c-0.521,0.521-0.894,1.155-1.113,1.838c-0.19,0.641-0.247,1.324-0.141,2.007l1.049,6.748
				c0.127,0.831-0.049,1.683-0.507,2.395l-4.17,6.501c-0.24,0.38-0.549,0.704-0.902,0.951c-0.577,0.416-1.282,0.648-2.014,0.648
				h-4.754c-0.289,0-0.577,0.035-0.845,0.113c-1.014,0.268-1.852,1.021-2.226,2.035l-4.198,11.46
				c-0.307,0.834,0.055,1.741,0.794,2.158l-0.001,0l0.005,0.002c0.01,0.006,0.02,0.01,0.03,0.015l6.205,3.04
				c0.072,0.266,0.099,0.548,0.067,0.835l-0.697,6.43c-0.049,0.409-0.148,0.81-0.31,1.19c-0.211,0.535-0.528,1.021-0.93,1.437
				l-6.374,6.564c-0.451,0.465-0.768,1.021-0.951,1.62c-0.197,0.648-0.225,1.338-0.078,2.014l1.803,8.163
				c0.087,0.398,0.356,0.682,0.685,0.826l-0.007,0.005l8.665,4.24v-0.003c0.403,0.221,0.924,0.215,1.326-0.116l2.812-2.318
				l-2.359,8.15c-0.056,0.183-0.077,0.373-0.071,0.556l0,0l0,0.001c0.017,0.709,0.441,1.339,1.078,1.639l0.018,0.027l8.428,4.098
				l-0.004-0.011c0.247,0.182,0.538,0.313,0.868,0.354l4.872,0.609c1.338,0.167,2.628-0.558,3.18-1.789l4.15-9.258
				c0.42-0.936,1.134-1.696,2.017-2.205l0.213,0.612c0.155,0.448,0.495,0.749,0.89,0.892l-0.007,0.008l8.562,4.198
				c0.013,0.007,0.025,0.012,0.038,0.019l0.044,0.022v-0.005c0.51,0.236,1.144,0.185,1.61-0.242l7.455-6.823
				c0.904-0.827,1.341-2.047,1.169-3.26l-1.057-7.456c-0.179-1.261,0.104-2.544,0.796-3.613l3.414-5.277
				c0.88-1.359,2.389-2.181,4.008-2.181h4.54c1.135,0,2.15-0.706,2.545-1.771l4.115-11.103c0.389-1.05-0.059-2.183-0.976-2.721
				h0.012l-0.048-0.023c-0.055-0.031-0.113-0.057-0.171-0.084l-5.707-2.786c-0.06-0.234-0.088-0.479-0.07-0.73L120.881,172.486z
				 M93.513,167.151c2.121-1.503,4.186-2.376,6.102-2.689c0.847,1.569,1.42,3.566,1.645,5.985
				c0.93,9.987-4.951,22.778-13.136,28.582c-2.123,1.504-4.147,2.406-6.002,2.763c-0.905-1.61-1.517-3.636-1.743-6.06
				C79.449,185.746,85.33,172.95,93.513,167.151z"/>
			<path style="opacity:0.2;" d="M69.847,200.388l-9.424,9.579l-8.706-4.486c0.183-0.599,0.5-1.155,0.951-1.62l6.374-6.564
				c0.402-0.416,0.718-0.901,0.93-1.437L69.847,200.388z"/>
			<path style="opacity:0.2;" d="M76.7,172.208l-0.19,1.071h-8.17l-8.037-4.585c0.268-0.078,0.556-0.113,0.845-0.113h4.754
				c0.733,0,1.437-0.232,2.014-0.648L76.7,172.208z"/>
			<path style="opacity:0.2;" d="M91.441,144.069l-3.684,3.627h-0.007l-6.522,6.417l-8.635-4.768l-0.007-0.014
				c0.218-0.683,0.591-1.317,1.113-1.838l7.332-7.41c0.437-0.444,1.057-0.535,1.578-0.331l0.007,0.007l0.274,0.134L91.441,144.069z"
				/>
			<path style="opacity:0.2;" d="M116.305,137.653h-8.579l-8.551-4.501v-0.007c0.556-0.521,1.331-0.782,2.127-0.683l5.592,0.704
				c0.254,0.028,0.486,0.113,0.697,0.225l0.014,0.007L116.305,137.653z"/>
			<path style="fill:#BA68C8;" d="M122.803,168.251l6.144-6.202c0.933-0.942,1.332-2.289,1.063-3.588l-1.555-7.496
				c-0.235-1.131-1.587-1.608-2.48-0.874l-6.38,5.247c-0.688,0.565-1.694,0.507-2.312-0.133l-1.841-1.91
				c-1.163-1.206-1.563-2.955-1.039-4.546l2.871-8.729c0.387-1.175-0.395-2.411-1.622-2.566l-5.591-0.705
				c-1.162-0.147-2.283,0.489-2.753,1.562l-4.14,9.444c-0.505,1.152-1.431,2.066-2.59,2.555l-3.72,1.572
				c-0.914,0.386-1.966-0.061-2.323-0.986l-2.324-6.014c-0.385-0.998-1.671-1.266-2.424-0.506l-7.333,7.403
				c-1.003,1.013-1.466,2.441-1.247,3.85l1.046,6.745c0.129,0.834-0.051,1.686-0.506,2.397l-4.168,6.504
				c-0.638,0.996-1.739,1.598-2.921,1.598h-4.75c-1.375,0-2.603,0.858-3.076,2.149l-4.196,11.457
				c-0.351,0.958,0.176,2.014,1.152,2.31l4.352,1.32c1.046,0.318,1.718,1.334,1.599,2.421l-0.701,6.427
				c-0.108,0.991-0.544,1.917-1.238,2.632l-6.372,6.563c-0.932,0.96-1.32,2.325-1.032,3.631l1.801,8.166
				c0.191,0.866,1.23,1.224,1.914,0.661l6.265-5.163c1.042-0.859,2.584-0.707,3.438,0.339l1.585,1.941
				c0.78,0.954,1.04,2.231,0.698,3.415l-2.777,9.592c-0.319,1.103,0.423,2.229,1.562,2.372l4.872,0.609
				c1.338,0.167,2.628-0.558,3.18-1.789l4.15-9.258c0.472-1.052,1.302-1.901,2.342-2.397l3.631-1.729
				c1.208-0.576,2.648,0.026,3.088,1.29l1.927,5.534c0.347,0.997,1.601,1.313,2.38,0.601l7.455-6.823
				c0.904-0.827,1.341-2.047,1.169-3.26l-1.057-7.456c-0.179-1.261,0.104-2.544,0.796-3.613l3.414-5.277
				c0.88-1.359,2.389-2.181,4.008-2.181h4.54c1.135,0,2.15-0.706,2.545-1.771l4.115-11.103c0.461-1.245-0.246-2.616-1.528-2.962
				l-3.745-1.01c-1.057-0.285-1.765-1.28-1.687-2.372l0.404-5.653C120.995,170.89,121.677,169.388,122.803,168.251z M96.88,203.315
				c-8.184,5.798-15.572,2.403-16.501-7.583c-0.93-9.986,4.951-22.782,13.134-28.581c8.184-5.799,15.572-2.404,16.501,7.583
				C110.944,184.721,105.064,197.516,96.88,203.315z"/>
		</g>
	</g>
	<g>
		<g>
			<path style="fill:#BA68C8;" d="M166.839,77.898c0.094-1.316,0.656-2.555,1.585-3.492l5.065-5.113
				c0.769-0.777,1.098-1.887,0.876-2.958l-1.282-6.18c-0.082-0.397-0.336-0.688-0.652-0.854l0.008-0.006l-7.178-3.507l-0.174-0.087
				c-0.401-0.163-0.888-0.116-1.266,0.197l-2.09,1.719l2.134-6.486c0.26-0.791-0.127-1.606-0.825-1.952h0.026l-7.172-3.507
				l-0.012-0.006c-0.174-0.093-0.366-0.163-0.575-0.186l-4.611-0.581c-0.656-0.081-1.295,0.133-1.754,0.563v0.006
				c-0.215,0.192-0.395,0.436-0.517,0.714l-3.415,7.787c-0.326,0.754-0.88,1.375-1.566,1.804l-0.245-0.634
				c-0.123-0.319-0.359-0.544-0.635-0.668l0.002-0.002l-7.05-3.444l-0.226-0.11l-0.006-0.006c-0.43-0.168-0.941-0.093-1.301,0.273
				l-6.045,6.109c-0.43,0.43-0.737,0.952-0.917,1.516c-0.157,0.528-0.203,1.092-0.116,1.655l0.865,5.563
				c0.104,0.685-0.041,1.388-0.418,1.974l-3.438,5.36c-0.197,0.313-0.453,0.581-0.743,0.784c-0.476,0.343-1.057,0.534-1.661,0.534
				h-3.92c-0.238,0-0.476,0.029-0.697,0.093c-0.836,0.221-1.527,0.842-1.835,1.678l-3.461,9.448
				c-0.253,0.688,0.045,1.436,0.655,1.779l-0.001,0l0.004,0.002c0.008,0.005,0.017,0.008,0.025,0.012l5.116,2.507
				c0.059,0.219,0.081,0.451,0.055,0.688l-0.575,5.302c-0.041,0.337-0.122,0.668-0.256,0.981c-0.174,0.441-0.435,0.842-0.767,1.185
				l-5.255,5.412c-0.372,0.383-0.633,0.842-0.784,1.336c-0.163,0.534-0.186,1.103-0.064,1.661l1.487,6.73
				c0.072,0.328,0.294,0.562,0.564,0.681l-0.005,0.004l7.144,3.495v-0.002c0.332,0.182,0.761,0.177,1.093-0.096l2.319-1.911
				l-1.945,6.719c-0.046,0.151-0.064,0.308-0.058,0.458l0,0l0,0.001c0.014,0.584,0.364,1.104,0.889,1.352l0.015,0.023l6.949,3.378
				l-0.003-0.009c0.204,0.15,0.443,0.258,0.715,0.292l4.017,0.502c1.103,0.138,2.167-0.46,2.622-1.475l3.422-7.633
				c0.346-0.772,0.935-1.398,1.663-1.818l0.176,0.504c0.127,0.369,0.408,0.618,0.734,0.735l-0.006,0.006l7.059,3.461
				c0.01,0.006,0.021,0.01,0.032,0.015l0.036,0.018v-0.004c0.421,0.195,0.943,0.152,1.328-0.199l6.146-5.626
				c0.745-0.682,1.106-1.687,0.964-2.687l-0.871-6.147c-0.147-1.039,0.086-2.097,0.656-2.979l2.815-4.35
				c0.725-1.121,1.969-1.798,3.305-1.798h3.743c0.936,0,1.773-0.583,2.098-1.46l3.392-9.154c0.321-0.866-0.049-1.799-0.805-2.243
				h0.01l-0.039-0.019c-0.046-0.026-0.093-0.047-0.141-0.069l-4.705-2.297c-0.049-0.193-0.072-0.395-0.058-0.602L166.839,77.898z
				 M144.275,73.499c1.749-1.239,3.451-1.959,5.031-2.217c0.698,1.294,1.171,2.94,1.357,4.934c0.766,8.234-4.083,18.78-10.83,23.565
				c-1.751,1.24-3.419,1.984-4.949,2.278c-0.746-1.327-1.251-2.998-1.437-4.996C132.68,88.83,137.528,78.28,144.275,73.499z"/>
			<path style="opacity:0.3;" d="M166.839,77.898c0.094-1.316,0.656-2.555,1.585-3.492l5.065-5.113
				c0.769-0.777,1.098-1.887,0.876-2.958l-1.282-6.18c-0.082-0.397-0.336-0.688-0.652-0.854l0.008-0.006l-7.178-3.507l-0.174-0.087
				c-0.401-0.163-0.888-0.116-1.266,0.197l-2.09,1.719l2.134-6.486c0.26-0.791-0.127-1.606-0.825-1.952h0.026l-7.172-3.507
				l-0.012-0.006c-0.174-0.093-0.366-0.163-0.575-0.186l-4.611-0.581c-0.656-0.081-1.295,0.133-1.754,0.563v0.006
				c-0.215,0.192-0.395,0.436-0.517,0.714l-3.415,7.787c-0.326,0.754-0.88,1.375-1.566,1.804l-0.245-0.634
				c-0.123-0.319-0.359-0.544-0.635-0.668l0.002-0.002l-7.05-3.444l-0.226-0.11l-0.006-0.006c-0.43-0.168-0.941-0.093-1.301,0.273
				l-6.045,6.109c-0.43,0.43-0.737,0.952-0.917,1.516c-0.157,0.528-0.203,1.092-0.116,1.655l0.865,5.563
				c0.104,0.685-0.041,1.388-0.418,1.974l-3.438,5.36c-0.197,0.313-0.453,0.581-0.743,0.784c-0.476,0.343-1.057,0.534-1.661,0.534
				h-3.92c-0.238,0-0.476,0.029-0.697,0.093c-0.836,0.221-1.527,0.842-1.835,1.678l-3.461,9.448
				c-0.253,0.688,0.045,1.436,0.655,1.779l-0.001,0l0.004,0.002c0.008,0.005,0.017,0.008,0.025,0.012l5.116,2.507
				c0.059,0.219,0.081,0.451,0.055,0.688l-0.575,5.302c-0.041,0.337-0.122,0.668-0.256,0.981c-0.174,0.441-0.435,0.842-0.767,1.185
				l-5.255,5.412c-0.372,0.383-0.633,0.842-0.784,1.336c-0.163,0.534-0.186,1.103-0.064,1.661l1.487,6.73
				c0.072,0.328,0.294,0.562,0.564,0.681l-0.005,0.004l7.144,3.495v-0.002c0.332,0.182,0.761,0.177,1.093-0.096l2.319-1.911
				l-1.945,6.719c-0.046,0.151-0.064,0.308-0.058,0.458l0,0l0,0.001c0.014,0.584,0.364,1.104,0.889,1.352l0.015,0.023l6.949,3.378
				l-0.003-0.009c0.204,0.15,0.443,0.258,0.715,0.292l4.017,0.502c1.103,0.138,2.167-0.46,2.622-1.475l3.422-7.633
				c0.346-0.772,0.935-1.398,1.663-1.818l0.176,0.504c0.127,0.369,0.408,0.618,0.734,0.735l-0.006,0.006l7.059,3.461
				c0.01,0.006,0.021,0.01,0.032,0.015l0.036,0.018v-0.004c0.421,0.195,0.943,0.152,1.328-0.199l6.146-5.626
				c0.745-0.682,1.106-1.687,0.964-2.687l-0.871-6.147c-0.147-1.039,0.086-2.097,0.656-2.979l2.815-4.35
				c0.725-1.121,1.969-1.798,3.305-1.798h3.743c0.936,0,1.773-0.583,2.098-1.46l3.392-9.154c0.321-0.866-0.049-1.799-0.805-2.243
				h0.01l-0.039-0.019c-0.046-0.026-0.093-0.047-0.141-0.069l-4.705-2.297c-0.049-0.193-0.072-0.395-0.058-0.602L166.839,77.898z
				 M144.275,73.499c1.749-1.239,3.451-1.959,5.031-2.217c0.698,1.294,1.171,2.94,1.357,4.934c0.766,8.234-4.083,18.78-10.83,23.565
				c-1.751,1.24-3.419,1.984-4.949,2.278c-0.746-1.327-1.251-2.998-1.437-4.996C132.68,88.83,137.528,78.28,144.275,73.499z"/>
			<path style="opacity:0.2;" d="M124.763,100.902l-7.77,7.898l-7.178-3.699c0.151-0.493,0.412-0.952,0.784-1.336l5.255-5.412
				c0.331-0.343,0.592-0.743,0.767-1.185L124.763,100.902z"/>
			<path style="opacity:0.2;" d="M130.413,77.668l-0.157,0.883h-6.736l-6.626-3.78c0.221-0.064,0.459-0.093,0.697-0.093h3.92
				c0.604,0,1.185-0.192,1.661-0.534L130.413,77.668z"/>
			<path style="opacity:0.2;" d="M142.567,54.469l-3.037,2.991h-0.006l-5.377,5.29l-7.12-3.931l-0.006-0.012
				c0.18-0.563,0.488-1.086,0.917-1.516l6.045-6.109c0.36-0.366,0.871-0.441,1.301-0.273l0.006,0.006l0.226,0.11L142.567,54.469z"/>
			<path style="opacity:0.2;" d="M163.066,49.179h-7.073l-7.05-3.711v-0.006c0.459-0.43,1.097-0.645,1.754-0.563l4.611,0.581
				c0.209,0.023,0.401,0.093,0.575,0.186l0.012,0.006L163.066,49.179z"/>
			<path style="fill:#BA68C8;" d="M168.424,74.406l5.065-5.113c0.769-0.777,1.098-1.887,0.876-2.958l-1.282-6.18
				c-0.193-0.933-1.309-1.326-2.044-0.721l-5.26,4.326c-0.567,0.466-1.397,0.418-1.907-0.11l-1.518-1.574
				c-0.958-0.994-1.288-2.437-0.857-3.748l2.368-7.197c0.319-0.969-0.326-1.988-1.338-2.116l-4.61-0.581
				c-0.958-0.121-1.882,0.403-2.27,1.288l-3.413,7.787c-0.416,0.949-1.18,1.703-2.135,2.106l-3.067,1.296
				c-0.753,0.318-1.621-0.05-1.915-0.813l-1.916-4.958c-0.318-0.822-1.378-1.044-1.998-0.417l-6.046,6.104
				c-0.827,0.835-1.209,2.012-1.029,3.174l0.862,5.562c0.106,0.687-0.042,1.39-0.417,1.976l-3.436,5.362
				c-0.526,0.821-1.434,1.317-2.409,1.317h-3.916c-1.133,0-2.146,0.708-2.536,1.772l-3.46,9.446c-0.289,0.79,0.145,1.66,0.95,1.904
				l3.588,1.088c0.863,0.262,1.416,1.1,1.319,1.996l-0.578,5.299c-0.089,0.817-0.448,1.58-1.021,2.17l-5.253,5.411
				c-0.769,0.792-1.088,1.917-0.851,2.994l1.485,6.733c0.157,0.714,1.014,1.009,1.578,0.545l5.166-4.257
				c0.859-0.708,2.13-0.583,2.834,0.28l1.307,1.6c0.643,0.787,0.858,1.839,0.575,2.815l-2.289,7.909
				c-0.263,0.909,0.349,1.838,1.287,1.955l4.017,0.502c1.103,0.138,2.167-0.46,2.622-1.475l3.422-7.633
				c0.389-0.867,1.073-1.567,1.931-1.976l2.994-1.425c0.996-0.475,2.183,0.021,2.546,1.063l1.589,4.563
				c0.286,0.822,1.32,1.083,1.962,0.495l6.146-5.626c0.745-0.682,1.106-1.687,0.964-2.687l-0.871-6.147
				c-0.147-1.039,0.086-2.097,0.656-2.979l2.815-4.35c0.725-1.121,1.969-1.798,3.305-1.798h3.743c0.936,0,1.773-0.583,2.098-1.46
				l3.392-9.154c0.38-1.026-0.203-2.157-1.26-2.442l-3.088-0.833c-0.872-0.235-1.455-1.055-1.391-1.956l0.333-4.661
				C166.933,76.582,167.495,75.343,168.424,74.406z M147.051,103.315c-6.747,4.781-12.838,1.981-13.605-6.252
				c-0.767-8.233,4.082-18.783,10.829-23.564c6.747-4.781,12.838-1.982,13.605,6.252C158.647,87.985,153.798,98.534,147.051,103.315
				z"/>
		</g>
	</g>
</g>
<g id="Character">
	<g>
		<g>
			<path style="fill:#BA68C8;" d="M308.129,274.78l-3.694-2.477c-0.001-0.001-0.002-0.002-0.003-0.004l-0.001,0.001l-0.001-0.001
				l-6.538,17.033l-6.967,3.78l-1.648-2.392l8.327-16.869l-3.697-2.479c-0.324,0.157-0.646,0.326-0.971,0.515
				c-7.675,4.419-13.904,15.176-13.914,24.037c-0.008,4.099,1.324,7.077,3.517,8.647l0.372,0.241l2.938,1.937l0.992,0.687
				l-0.094,77.472c-4.649,5.267-7.858,12.598-7.865,18.949c-0.004,3.34,0.878,5.931,2.382,7.625l0.011-0.028l-0.009,0.029
				l3.698,2.48l-0.72-10.245l3.558-9.268l1.338-0.722l5.632-3.052l3.585,5.19l-3.906,9.848l-2.659,6.698l3.698,2.48l3.115-7.846
				c4.757-5.283,8.062-12.734,8.07-19.18c0.004-2.427-0.462-4.456-1.295-6.036l1.367-0.208l-3.471-2.315l-0.001,0.001
				c-1.256-0.943-2.805-1.415-4.556-1.361l0.1-78.918c4.717-5.278,7.984-12.687,7.994-19.101c0.001-0.531-0.029-1.036-0.072-1.529
				L308.129,274.78z"/>
			<path style="fill:#BA68C8;" d="M302.416,380.422l0.101-78.918c4.718-5.279,7.988-12.689,7.996-19.102
				c0.004-3.337-0.876-5.926-2.384-7.622l-6.538,17.034l-6.964,3.776l-3.59-5.195l6.567-16.542c-0.32,0.159-0.641,0.326-0.967,0.514
				c-7.675,4.418-13.907,15.179-13.918,24.036c-0.008,6.353,3.187,9.999,7.826,9.922l-0.101,79.061
				c-4.646,5.269-7.855,12.601-7.863,18.954c-0.004,3.337,0.876,5.926,2.384,7.622l6.538-17.034l6.964-3.776l3.59,5.195
				l-6.567,16.542c0.32-0.159,0.641-0.326,0.967-0.514c7.675-4.418,13.907-15.18,13.918-24.036
				C310.383,383.926,307.127,380.273,302.416,380.422z"/>
			<path style="fill:#BA68C8;" d="M306.732,381.62l0.015-0.002l-3.471-2.315l-0.001,0.001c-0.272-0.204-0.56-0.382-0.858-0.541
				l-0.002,1.659C304.059,380.37,305.52,380.791,306.732,381.62z"/>
			<path style="opacity:0.4;" d="M306.732,381.62l0.015-0.002l-3.471-2.315l-0.001,0.001c-0.272-0.204-0.56-0.382-0.858-0.541
				l-0.002,1.659C304.059,380.37,305.52,380.791,306.732,381.62z"/>
			<polygon style="fill:#BA68C8;" points="298.605,407.042 302.057,398.346 298.467,393.151 297.024,393.934 298.357,395.863 
				294.451,405.711 291.792,412.408 295.49,414.888 298.605,407.042 			"/>
			<path style="opacity:0.2;" d="M282.911,304.812l2.938,1.937l0.053,0.037c-1.991-1.628-3.189-4.495-3.185-8.382
				c0.011-8.856,6.243-19.618,13.918-24.036c0.325-0.187,0.647-0.355,0.967-0.514l-0.004,0.011l0.007-0.013l-3.697-2.479
				c-0.324,0.157-0.646,0.326-0.971,0.515c-7.675,4.419-13.904,15.176-13.914,24.037c-0.008,4.099,1.324,7.077,3.517,8.647
				L282.911,304.812z"/>
			<polygon style="opacity:0.2;" points="304.431,272.3 297.893,289.333 301.591,291.814 308.129,274.78 			"/>
			<polygon style="opacity:0.4;" points="297.893,289.333 301.591,291.814 294.626,295.59 292.372,292.328 			"/>
			<path style="opacity:0.4;" d="M290.544,308.325c-1.401,0.023-2.668-0.299-3.757-0.927l0.055,0.038l-0.094,77.472l3.696,2.478
				L290.544,308.325z"/>
			<path style="opacity:0.2;" d="M278.882,403.856c-0.004,3.34,0.878,5.931,2.382,7.625l0.011-0.028l-0.009,0.029l3.698,2.48
				c-1.508-1.696-2.388-4.286-2.384-7.622c0.008-6.353,3.217-13.685,7.863-18.954l-3.696-2.478
				C282.098,390.175,278.889,397.506,278.882,403.856z"/>
			<polygon style="opacity:0.4;" points="298.357,395.863 302.057,398.346 298.467,393.151 297.024,393.934 			"/>
			<polygon style="opacity:0.2;" points="291.792,412.408 295.49,414.888 302.057,398.346 298.357,395.863 			"/>
		</g>
		<g>
			<path style="fill:#37474F;" d="M278.24,414.59c0,0-3.445-2.95-4.782-3.088c-1.337-0.138-3.655,2.154-1.697,6.131
				c0.545,1.106,2.757,2.305,4.14,4.425c1.383,2.12,2.628,3.714,4.748,3.424c2.12-0.29,2.397-1.488,2.259-2.871
				c-0.138-1.383-0.76-3.757-0.76-3.757L278.24,414.59z"/>
			<path style="fill:#263238;" d="M280.762,424.847c-2.186,0.299-3.468-1.344-4.894-3.53c-1.425-2.186-3.706-3.421-4.267-4.561
				c-0.247-0.501-0.426-0.976-0.551-1.424c0.08,0.687,0.294,1.453,0.711,2.301c0.545,1.106,2.757,2.305,4.14,4.425
				c1.383,2.12,2.627,3.714,4.748,3.424c1.624-0.222,2.163-0.979,2.266-1.941C282.634,424.189,282.018,424.675,280.762,424.847z"/>
			<path style="fill:none;stroke:#EBEBEB;stroke-width:0.7367;stroke-linecap:round;stroke-miterlimit:10;" d="M276.404,418.046
				c0,0,1.023-1.917,3.018-2.37"/>
			<path style="fill:none;stroke:#EBEBEB;stroke-width:0.7367;stroke-linecap:round;stroke-miterlimit:10;" d="M275.117,416.861
				c0,0,1.022-1.917,3.018-2.37"/>
			<path style="fill:none;stroke:#EBEBEB;stroke-width:0.7367;stroke-linecap:round;stroke-miterlimit:10;" d="M273.647,415.676
				c0,0,1.023-1.917,3.018-2.37"/>
			<path style="fill:#37474F;" d="M259.916,424.259c0,0-4.615-1.497-5.992-1.084c-1.377,0.413-2.724,3.629,0.844,6.751
				c0.993,0.869,3.67,1.143,5.907,2.668c2.237,1.526,4.121,2.588,6.096,1.43c1.975-1.158,1.813-2.489,1.462-3.934
				c-0.448-1.84-0.807-3.177-0.807-3.177L259.916,424.259z"/>
			<path style="fill:#263238;" d="M266.622,433.351c-2.035,1.193-3.978,0.099-6.284-1.474c-2.306-1.572-5.066-1.855-6.089-2.75
				c-0.45-0.394-0.822-0.789-1.129-1.18c0.361,0.646,0.887,1.314,1.648,1.979c0.993,0.869,3.67,1.143,5.907,2.668
				c2.237,1.526,4.121,2.588,6.096,1.43c1.513-0.887,1.733-1.855,1.439-2.849C268.201,431.932,267.792,432.665,266.622,433.351z"/>
			<path style="fill:none;stroke:#EBEBEB;stroke-width:0.7367;stroke-linecap:round;stroke-miterlimit:10;" d="M258.814,428.185
				c0,0,0.222-2.314,2.006-3.581"/>
			<path style="fill:none;stroke:#EBEBEB;stroke-width:0.7367;stroke-linecap:round;stroke-miterlimit:10;" d="M260.72,428.809
				c0,0,0.222-2.314,2.006-3.581"/>
			<path style="fill:none;stroke:#EBEBEB;stroke-width:0.7367;stroke-linecap:round;stroke-miterlimit:10;" d="M257.056,427.544
				c0,0,0.222-2.314,2.006-3.581"/>
			<path style="fill:#FFA8A7;" d="M292.588,333.554l3.595,3.815l6.402-6.283v-6.6c0,0,2.725,3.398,2.725,6.832
				s-0.922,4.058-1.936,6.051c-1.014,1.993-5.048,10.013-7.825,8.262c-2.777-1.752-8.216-6.546-8.216-6.546L292.588,333.554z"/>
			<g>
				<path style="fill:#BA68C8;" d="M280.972,321.846c0,0,2.282,0,5.117,3.319c2.835,3.319,7.606,8.643,7.606,8.643
					s0.068,5.531-5.463,6.983l-6.64-5.708L280.972,321.846z"/>
				<path style="opacity:0.4;fill:#FFFFFF;" d="M280.972,321.846c0,0,2.282,0,5.117,3.319c2.835,3.319,7.606,8.643,7.606,8.643
					s0.068,5.531-5.463,6.983l-6.64-5.708L280.972,321.846z"/>
			</g>
			<g>
				<path style="fill:#455A64;" d="M282.363,415.469c0.413-4.57,1.309-11.729,1.681-15.077c0.665-5.98,0.056-10.542-0.361-12.711
					c-0.191-0.993-0.244-1.998-0.144-3.004c0.905-9.101,1.499-23.85,0.997-27.091l-12.775,2.703c0,0,1.564,20.694,2.25,27.577
					c0.691,6.929,3.258,27.663,3.258,27.663C278.338,416.157,280.277,416.845,282.363,415.469z"/>
				<path style="fill:#FFA8A7;" d="M280.522,420.168c1.106-0.173,1.625-1.314,1.625-1.314c0-0.721,0.084-1.923,0.216-3.385
					c-2.086,1.376-4.025,0.688-5.094,0.06l0.453,3.844C278.241,419.96,279.416,420.34,280.522,420.168z"/>
			</g>
			<path style="fill:#455A64;" d="M267.991,423.499c0.521-6.915,1.528-20.319,1.662-22.424c0.135-2.124-0.1-5.048-0.441-6.955
				c-0.221-1.241-0.203-2.511,0.021-3.751l5.614-31.149l-15.437-0.226l-1.01,32.633c-0.013,0.422,0.003,0.844,0.048,1.263
				l3.274,30.415v0C261.723,423.305,264.916,425.983,267.991,423.499z"/>
			<path style="fill:#FFA8A7;" d="M265.418,429.21c1.11-0.104,2.108-1.042,2.263-1.59c0,0,0.125-1.65,0.311-4.121
				c-3.076,2.484-6.269-0.194-6.269-0.194v0l0.491,4.561C262.214,427.866,262.939,429.442,265.418,429.21z"/>
			<path style="fill:#BA68C8;" d="M266.544,323.92l-3.642,1.245l-3.918,18.53l0.19,16.431c0,0,2.798,2.23,13.727,2.23
				c6.135,0,10.129-2.31,11.635-4.77l-0.983-9.927c0,0,0.983-9.782,0.983-14.617c0-4.835,0.216-8.799-3.564-11.196l-3.365,0.277
				L266.544,323.92z"/>
			<path style="opacity:0.2;fill:#FFFFFF;" d="M266.544,323.92l-3.642,1.245l-3.918,18.53l0.19,16.431c0,0,2.798,2.23,13.727,2.23
				c6.135,0,10.129-2.31,11.635-4.77l-0.983-9.927c0,0,0.983-9.782,0.983-14.617c0-4.835,0.216-8.799-3.564-11.196l-3.365,0.277
				L266.544,323.92z"/>
			<path style="fill:#F28F8F;" d="M262.589,307.995l-1.824,3.609c-0.113,0.223-0.001,0.494,0.236,0.573l2.164,0.721L262.589,307.995
				z"/>
			<path style="fill:#FFA8A7;" d="M265.115,301.941c0,0-2.766,1.49-2.766,10.04c0,4.702,0.323,7.698,2.766,7.514
				c2.443-0.184,9.472-1.106,9.472-1.106v-16.447H265.115z"/>
			<path style="fill:#F28F8F;" d="M265.115,319.495c0.858-0.065,2.285-0.221,3.772-0.396v-0.872
				c-1.368,0.702-3.809,1.193-4.18,1.266C264.836,319.503,264.971,319.506,265.115,319.495z"/>
			<polygon style="fill:#FFA8A7;" points="268.468,317.862 268.468,323.228 275.809,323.228 275.809,315.688 			"/>
			<path style="fill:#BA68C8;" d="M268.468,321.185c0,0,2.639,0.938,4.759,0.569s2.581-1.659,2.581-1.659s0.691-0.052,1.798,2.028
				c0,0-1.296,2.59-4.287,2.766c-3.918,0.23-6.776-0.968-6.776-0.968S267.564,320.918,268.468,321.185z"/>
			<path style="opacity:0.4;fill:#FFFFFF;" d="M268.468,321.185c0,0,2.639,0.938,4.759,0.569s2.581-1.659,2.581-1.659
				s0.691-0.052,1.798,2.028c0,0-1.296,2.59-4.287,2.766c-3.918,0.23-6.776-0.968-6.776-0.968S267.564,320.918,268.468,321.185z"/>
			<g>
				<path style="fill:#37474F;" d="M232.663,348.646l-2.926-1.858c-0.285-0.181-0.277-0.599,0.014-0.769l12.838-7.529
					c0.342-0.2,0.766-0.196,1.103,0.012l16.003,10.072c0.537,0.338,0.513,1.128-0.043,1.433l-13.2,7.246
					c-0.413,0.227-0.919,0.202-1.308-0.064L232.663,348.646z"/>
				<path style="fill:#E0E0E0;" d="M232.663,347.954l-2.926-1.858c-0.285-0.181-0.277-0.599,0.014-0.769l12.838-7.529
					c0.342-0.2,0.766-0.196,1.103,0.012l16.003,10.072c0.537,0.338,0.513,1.128-0.043,1.433l-13.2,7.246
					c-0.413,0.227-0.919,0.202-1.308-0.064L232.663,347.954z"/>
				<polygon style="fill:#E0E0E0;" points="229.528,344.508 229.528,345.697 231.557,345.697 				"/>
				<path style="fill:#FFFFFF;" d="M232.663,346.824l-2.926-1.858c-0.285-0.181-0.277-0.599,0.014-0.769l12.838-7.529
					c0.342-0.2,0.766-0.196,1.103,0.012l16.003,10.072c0.537,0.338,0.513,1.128-0.043,1.433l-13.2,7.246
					c-0.413,0.227-0.919,0.202-1.308-0.064L232.663,346.824z"/>
			</g>
			<g>
				
					<line style="fill:none;stroke:#BA68C8;stroke-width:0.7367;stroke-linecap:round;stroke-miterlimit:10;" x1="234.828" y1="344.303" x2="243.582" y2="339.169"/>
				
					<line style="fill:none;stroke:#BA68C8;stroke-width:0.7367;stroke-linecap:round;stroke-miterlimit:10;" x1="236.975" y1="345.697" x2="245.728" y2="340.564"/>
				
					<line style="fill:none;stroke:#BA68C8;stroke-width:0.7367;stroke-linecap:round;stroke-miterlimit:10;" x1="239.121" y1="347.092" x2="247.875" y2="341.958"/>
				
					<line style="fill:none;stroke:#BA68C8;stroke-width:0.7367;stroke-linecap:round;stroke-miterlimit:10;" x1="241.267" y1="348.486" x2="250.021" y2="343.352"/>
				
					<line style="fill:none;stroke:#BA68C8;stroke-width:0.7367;stroke-linecap:round;stroke-miterlimit:10;" x1="243.414" y1="349.88" x2="252.167" y2="344.747"/>
			</g>
			<path style="fill:#FFA8A7;" d="M255.527,340.855l-1.902,6.569c0,0-3.007,0.899-6.326,2.005c-3.319,1.106-6.297,1.497-6.297,1.497
				s-1.132-1.369-1.655-2.28c-0.523-0.911-0.968-2.259-1.383-1.845c-0.415,0.415-1.037,1.888,0,4.125c0,0-1.294,0.203-2.282-0.302
				c-0.988-0.505-3.02-1.978-3.02-1.978s-0.807,2.166,0,3.41s3.158,3.042,8.482,3.042c5.324,0,17.562-1.037,18.669-2.904
				c1.106-1.867,3.111-10.717,3.111-10.717L255.527,340.855z"/>
			<path style="fill:#BA68C8;" d="M262.902,325.165c0,0,3.525,1.426,3.191,6.763c-0.333,5.337-3.191,12.554-3.191,12.554
				s-5.365,0.013-8.488-3.345l3.141-11.574c0.454-1.672,1.67-3.026,3.286-3.652C261.411,325.691,262.092,325.441,262.902,325.165z"
				/>
			<path style="opacity:0.4;fill:#FFFFFF;" d="M262.902,325.165c0,0,3.525,1.426,3.191,6.763
				c-0.333,5.337-3.191,12.554-3.191,12.554s-5.365,0.013-8.488-3.345l3.141-11.574c0.454-1.672,1.67-3.026,3.286-3.652
				C261.411,325.691,262.092,325.441,262.902,325.165z"/>
			<path style="fill:#263238;" d="M264.055,296.908c0,0-2.901-0.385-3.642,1.613c-0.461,1.245,1.014,2.213,1.014,2.213
				s-1.872,1.762,0.922,2.305c0,0-0.23,2.397,2.259,2.074c0,0-0.323,1.901,2.12,2.564c0,0-1.235,3.29,1.088,3.336h2.175
				l-0.877,2.535c0,0,1.624,3.918,6.695,3.918c0,0,1.291-2.674,1.89-3.457c0.599-0.784,3.734-4.794,3.734-7.974
				s-1.224-5.065-2.917-5.483c0,0-0.725-1.754-2.43-2.907c-1.706-1.152-5.301-2.18-7.329-0.767c0,0-1.798-2.358-3.042-2.358
				S264.055,295.802,264.055,296.908z"/>
			<path style="fill:#FFA8A7;" d="M267.816,311.013c0,0-0.212-3.336,2.6-3.336c2.812,0,2.145,5.872-1.302,5.872L267.816,311.013z"/>
		</g>
	</g>
</g>
</svg>
