<svg xmlns="http://www.w3.org/2000/svg" width="1284.011" height="881.247" viewBox="0 0 1284.011 881.247">
  <g id="Group_981" data-name="Group 981" transform="translate(-340.22 -99.491)">
    <path id="Path_1" data-name="Path 1" d="M343.409,776.081c95.785,264.856,434.568,347.2,639.732,346.267,221.305-1,534.552-99.769,599.822-319.35,5.211-17.53,44.386-155.668-26.4-228.626C1440.616,454.864,1173.35,656.138,1002.58,525.3,908.189,452.984,951.586,362.086,848,291.112c-110.852-75.949-299.058-66.758-418.4,37.026C288.377,450.957,300.316,656.924,343.409,776.081Z" transform="translate(25.777 -141.618)" fill="#e9f0ff" opacity="0.81"/>
    <g id="Group_812" data-name="Group 812" transform="translate(224.959 -18.87)">
      <path id="Path_6598" data-name="Path 6598" d="M438.665,470.866a83.43,83.43,0,0,0,7.91-137.1,312.269,312.269,0,0,1,34.382-40.718c6.016-6.011,12.124-11.681,18.3-17.107q3.7,3.122,7.243,6.479l20.537-12.552a22.3,22.3,0,0,1,30.651,7.4l20.344,33.292a22.294,22.294,0,0,1-7.4,30.651L550.1,353.76a160.779,160.779,0,0,1,6.581,47.457l23.209,6.479a22.3,22.3,0,0,1,15.483,27.465l-10.49,37.583a22.3,22.3,0,0,1-27.464,15.483l-23.189-6.469a160.388,160.388,0,0,1-22.065,29.205L524.718,531.5a22.3,22.3,0,0,1-7.4,30.651L484.03,582.5a22.3,22.3,0,0,1-30.651-7.4l-12.551-20.532a160.517,160.517,0,0,1-36.529,6.3,255.631,255.631,0,0,1-9.172-77.818A83.075,83.075,0,0,0,438.665,470.866Z" transform="translate(634.971 333.757)" fill="#489aff"/>
      <g id="Group_771" data-name="Group 771" transform="translate(239.705 341.591)">
        <g id="Group_770" data-name="Group 770">
          <rect id="Rectangle_378" data-name="Rectangle 378" width="788.19" height="560.03" rx="6.928" transform="translate(22.815)" fill="#e3eaff"/>
          <rect id="Rectangle_379" data-name="Rectangle 379" width="767.448" height="545.293" rx="5.491" transform="translate(33.186 7.369)" fill="#6db8ff"/>
          <rect id="Rectangle_380" data-name="Rectangle 380" width="701.075" height="471.515" rx="3.383" transform="translate(66.373 33.03)" fill="#2f6dff"/>
          <path id="Path_6599" data-name="Path 6599" d="M243.38,320.08a29.23,29.23,0,0,0-3.675,14,29.557,29.557,0,0,0,29.556,29.556h774.706a29.558,29.558,0,0,0,29.562-29.556,29.234,29.234,0,0,0-3.68-14Z" transform="translate(-239.705 210.91)" fill="#e3eaff"/>
        </g>
        <path id="Path_6600" data-name="Path 6600" d="M240.427,325.582a29.441,29.441,0,0,0,25.882,15.554h774.706a29.441,29.441,0,0,0,25.881-15.554Z" transform="translate(-236.752 233.412)" fill="#c8d6f2"/>
      </g>
      <path id="Path_6601" data-name="Path 6601" d="M814.731,215.755H288.783V567.24a14.071,14.071,0,0,0,14.073,14.073H849.993v-330.3A35.264,35.264,0,0,0,814.731,215.755Z" transform="translate(200.718 125.835)" fill="#424261" opacity="0.2" style="mix-blend-mode: multiply;isolation: isolate"/>
      <rect id="Rectangle_381" data-name="Rectangle 381" width="615.692" height="390.524" rx="2.765" transform="translate(508.85 300.79)" fill="#e3eaff" opacity="0.21"/>
      <rect id="Rectangle_382" data-name="Rectangle 382" width="615.692" height="390.525" rx="2.765" transform="translate(533.477 274.403)" fill="#f9fbfc"/>
      <rect id="Rectangle_383" data-name="Rectangle 383" width="80.04" height="83.559" rx="1.728" transform="translate(348.55 457.351)" fill="#424261" opacity="0.2" style="mix-blend-mode: multiply;isolation: isolate"/>
      <rect id="Rectangle_384" data-name="Rectangle 384" width="80.04" height="83.559" rx="1.728" transform="translate(343.932 578.73)" fill="#6db8ff"/>
      <rect id="Rectangle_385" data-name="Rectangle 385" width="80.04" height="83.558" rx="1.728" transform="translate(343.932 697.471)" fill="#6db8ff"/>
      <g id="Group_772" data-name="Group 772" transform="translate(363.282 711.022)">
        <path id="Path_6602" data-name="Path 6602" d="M302.141,307.363a19.026,19.026,0,0,0-38.051,0s-2.682,20.151,19.026,36.173C304.823,327.514,302.141,307.363,302.141,307.363Z" transform="translate(-263.984 -288.338)" fill="#9570ee"/>
        <path id="Path_6603" data-name="Path 6603" d="M279.936,316.887a13.783,13.783,0,1,1,12.617-12.618A13.789,13.789,0,0,1,279.936,316.887Z" transform="translate(-259.686 -284.124)" fill="#f9fbfc"/>
      </g>
      <g id="Group_779" data-name="Group 779" transform="translate(355.716 593.086)">
        <g id="Group_774" data-name="Group 774">
          <g id="Group_773" data-name="Group 773">
            <path id="Path_6604" data-name="Path 6604" d="M315.142,291.486a26.322,26.322,0,1,1-26.324-26.319A26.324,26.324,0,0,1,315.142,291.486Z" transform="translate(-262.498 -265.167)" fill="#9570ee"/>
            <path id="Path_6605" data-name="Path 6605" d="M305.953,287.392a21.227,21.227,0,1,1-21.23-21.224A21.23,21.23,0,0,1,305.953,287.392Z" transform="translate(-258.404 -261.073)" fill="#f9fbfc"/>
            <path id="Path_6606" data-name="Path 6606" d="M285.356,267.534A21.223,21.223,0,0,1,305.7,282.707a.861.861,0,0,0,.819.616h0a.847.847,0,0,0,.814-1.079,22.926,22.926,0,0,0-43.96,0,.847.847,0,0,0,.814,1.079h0a.861.861,0,0,0,.819-.616A21.222,21.222,0,0,1,285.356,267.534Z" transform="translate(-259.037 -262.439)" fill="#bb87ee"/>
            <path id="Path_6607" data-name="Path 6607" d="M312.19,270.471a2.536,2.536,0,0,0-2.519,2.178,21.22,21.22,0,0,1-42.057,0,2.536,2.536,0,0,0-2.519-2.178h0a2.545,2.545,0,0,0-2.53,2.866,26.316,26.316,0,0,0,52.155,0,2.545,2.545,0,0,0-2.53-2.866Z" transform="translate(-262.32 -243.475)" fill="#7f57ee"/>
            <path id="Path_6608" data-name="Path 6608" d="M305.953,287.392a21.227,21.227,0,1,1-21.23-21.224A21.23,21.23,0,0,1,305.953,287.392Z" transform="translate(-258.404 -261.073)" fill="#f9fbfc"/>
            <path id="Path_6609" data-name="Path 6609" d="M305.675,271.684a.856.856,0,0,0-.8.565,21.224,21.224,0,0,1-39.777,0,.856.856,0,0,0-.8-.565h0a.851.851,0,0,0-.8,1.145,22.935,22.935,0,0,0,42.983,0,.851.851,0,0,0-.8-1.145Z" transform="translate(-258.661 -238.514)" fill="#9570ee"/>
          </g>
          <path id="Path_6610" data-name="Path 6610" d="M268.476,284.348h0a1.021,1.021,0,0,1-1.018-1.018V268.387a1.018,1.018,0,0,1,1.018-1.018h0a1.019,1.019,0,0,1,1.023,1.018v14.944A1.022,1.022,0,0,1,268.476,284.348Z" transform="translate(-242.213 -256.161)" fill="#9570ee"/>
          <path id="Path_6611" data-name="Path 6611" d="M267.707,270.685h0a1.017,1.017,0,0,1,1.435-.122l9.218,7.792a1.017,1.017,0,0,1,.122,1.435h0a1.022,1.022,0,0,1-1.435.122l-9.218-7.792A1.017,1.017,0,0,1,267.707,270.685Z" transform="translate(-242.177 -244.081)" fill="#9570ee"/>
        </g>
        <g id="Group_775" data-name="Group 775" transform="translate(25.728 6.536)">
          <rect id="Rectangle_386" data-name="Rectangle 386" width="0.764" height="2.038" fill="#ced6ff"/>
          <rect id="Rectangle_387" data-name="Rectangle 387" width="0.764" height="2.038" transform="translate(0 37.19)" fill="#ced6ff"/>
        </g>
        <g id="Group_776" data-name="Group 776" transform="translate(6.496 25.768)">
          <rect id="Rectangle_388" data-name="Rectangle 388" width="0.764" height="2.038" transform="translate(0 0.764) rotate(-90)" fill="#ced6ff"/>
          <rect id="Rectangle_389" data-name="Rectangle 389" width="0.764" height="2.038" transform="translate(37.19 0.765) rotate(-90)" fill="#ced6ff"/>
        </g>
        <g id="Group_777" data-name="Group 777" transform="translate(11.971 12.011)">
          <rect id="Rectangle_390" data-name="Rectangle 390" width="0.764" height="2.038" transform="translate(0 0.54) rotate(-44.976)" fill="#ced6ff"/>
          <rect id="Rectangle_391" data-name="Rectangle 391" width="0.764" height="2.038" transform="translate(26.297 26.838) rotate(-45)" fill="#ced6ff"/>
        </g>
        <g id="Group_778" data-name="Group 778" transform="translate(11.971 12.011)">
          <rect id="Rectangle_392" data-name="Rectangle 392" width="0.764" height="2.038" transform="translate(0.54 28.279) rotate(-134.997)" fill="#ced6ff"/>
          <rect id="Rectangle_393" data-name="Rectangle 393" width="0.764" height="2.038" transform="matrix(-0.707, -0.707, 0.707, -0.707, 26.838, 1.982)" fill="#ced6ff"/>
        </g>
      </g>
      <g id="Group_786" data-name="Group 786" transform="translate(247.996 454.713)">
        <rect id="Rectangle_394" data-name="Rectangle 394" width="80.04" height="83.558" rx="1.728" transform="translate(95.936)" fill="#6db8ff"/>
        <g id="Group_785" data-name="Group 785" transform="translate(0 43.978)">
          <path id="Path_6612" data-name="Path 6612" d="M262.872,277.625l6.6-4.618,2.968-10.885-3.3-.66-1.979,3.958,1.979-18.8-3.3.66-3.3,18.141L258.584,274l3.628,2.309" transform="translate(-170.784 -246.621)" fill="#f7d3a9"/>
          <path id="Path_6613" data-name="Path 6613" d="M267.095,270.692l.88-7.916,9.675-9.675,2.2,3.078-3.518,3.958,18.471-4.4V259.7l-17.151,6.6-3.518,6.157Z" transform="translate(-135.977 -220.117)" fill="#f7d3a9"/>
          <g id="Group_784" data-name="Group 784" transform="translate(0 24.35)">
            <g id="Group_783" data-name="Group 783">
              <path id="Path_6614" data-name="Path 6614" d="M243.436,295.008,279.412,471l27.225-2.916-18.474-6.807,6.806-1.944-9.723-164.322Z" transform="translate(-232.739 -73.077)" fill="#544db8"/>
              <path id="Path_6615" data-name="Path 6615" d="M292.991,302.258s45.7,42.785,38.891,94.314c-7.777,40.841-24.309,56.395-24.309,56.395l-4.861-.972,7.533,19.932L288.37,448.594s26.981-37.191,10.21-75.843-53.234-52.506-53.234-52.506S276.7,291.8,278.893,292.536,292.991,302.258,292.991,302.258Z" transform="translate(-224.926 -83.244)" fill="#544db8"/>
              <g id="Group_782" data-name="Group 782">
                <path id="Path_6616" data-name="Path 6616" d="M328.843,251.4s-75.11,91.153-83.859,109.385c0,0-3.649,6.561-3.649,25.525s6.566,88.964,6.566,88.964l76.571,4.377s-24.8-85.32-25.525-87.509-13.127-15.315-24.792-18.232l64.172-115.95Z" transform="translate(-241.334 -251.405)" fill="#ff8b40"/>
                <g id="Group_781" data-name="Group 781" transform="translate(19.703 69.137)">
                  <path id="Path_6617" data-name="Path 6617" d="M262.184,278.874s3.191,9.467,4.952,15.188c0,0-15.631-.331-21.133-7.594l5.833-13.977Z" transform="translate(-241.938 -234.305)" fill="#f7d3a9"/>
                  <g id="Group_780" data-name="Group 780">
                    <path id="Path_6618" data-name="Path 6618" d="M277.336,279.975s4.621,26.92,0,33.038-20.471-4.286-27.078-14.073-7.92-31.816,3.3-33.649S274.695,270.183,277.336,279.975Z" transform="translate(-245.205 -264.988)" fill="#f7d3a9"/>
                  </g>
                </g>
                <path id="Path_6619" data-name="Path 6619" d="M252.574,367.09s60.217-37.883,65.073-45.655S336.1,255.873,336.1,255.873l11.656,2.917s-6.8,64.589-8.739,71.389-61.194,69.934-74.789,69.934S245.774,382.629,252.574,367.09Z" transform="translate(-207.845 -233.132)" fill="#ff8b40"/>
              </g>
            </g>
            <path id="Path_6620" data-name="Path 6620" d="M250.052,272.351s7.92-10.994,21.993-8.352,17.59-.443,17.59-.443-3.079,15.391-12.755,18.914-12.312,2.636-12.312,2.636,5.278,5.278,6.6,9.233-4.4-4.835-6.6-1.756,0,9.676,4.4,9.233,1.756,3.079,0,6.6-4.4,7.92-7.039,6.6-11.874-6.6-15.391-17.59S242.138,275.873,250.052,272.351Z" transform="translate(-230.64 -201.71)" fill="#544db8"/>
          </g>
        </g>
      </g>
      <rect id="Rectangle_395" data-name="Rectangle 395" width="184.707" height="311.364" rx="1.296" transform="translate(571.298 315.302)" fill="#e3eaff"/>
      <rect id="Rectangle_396" data-name="Rectangle 396" width="119.62" height="26.386" rx="1.037" transform="translate(602.963 340.37)" fill="#6db8ff"/>
      <path id="Path_6621" data-name="Path 6621" d="M346.147,265.764H322.393a10.112,10.112,0,0,1-10.108-10.113h0a10.107,10.107,0,0,1,10.108-10.108h23.754a10.108,10.108,0,0,1,10.113,10.108h0A10.113,10.113,0,0,1,346.147,265.764Z" transform="translate(296.837 247.657)" fill="#6db8ff"/>
      <path id="Path_6622" data-name="Path 6622" d="M359.626,265.764H335.872a10.112,10.112,0,0,1-10.108-10.113h0a10.107,10.107,0,0,1,10.108-10.108h23.754A10.108,10.108,0,0,1,369.74,255.65h0A10.113,10.113,0,0,1,359.626,265.764Z" transform="translate(351.963 247.657)" fill="#9570ee"/>
      <rect id="Rectangle_397" data-name="Rectangle 397" width="128.416" height="20.23" transform="translate(600.324 393.143)" fill="#f9fbfc"/>
      <rect id="Rectangle_398" data-name="Rectangle 398" width="128.416" height="20.23" transform="translate(600.324 427.446)" fill="#f9fbfc"/>
      <rect id="Rectangle_399" data-name="Rectangle 399" width="73.883" height="4.617" transform="translate(628.03 460.43)" fill="#cdd4ff"/>
      <path id="Path_6623" data-name="Path 6623" d="M622.122,301.794H391.234a25.727,25.727,0,0,1-25.724-25.729h0a25.727,25.727,0,0,1,25.724-25.729H622.122a25.726,25.726,0,0,1,25.724,25.729h0A25.726,25.726,0,0,1,622.122,301.794Z" transform="translate(514.516 267.264)" fill="#9570ee"/>
      <g id="Group_787" data-name="Group 787" transform="translate(771.837 308.704)">
        <path id="Path_6624" data-name="Path 6624" d="M509.173,251.514H365.367a21.11,21.11,0,0,1-21.112-21.107h0a21.112,21.112,0,0,1,21.112-21.112H509.173a21.111,21.111,0,0,1,21.107,21.112h0A21.109,21.109,0,0,1,509.173,251.514Z" transform="translate(-344.254 -209.294)" fill="#e3eaff"/>
        <path id="Path_6625" data-name="Path 6625" d="M365.742,218.742a6.6,6.6,0,1,1-6.6-6.6A6.595,6.595,0,0,1,365.742,218.742Z" transform="translate(-310.329 -197.63)" fill="#ffc240"/>
        <path id="Path_6626" data-name="Path 6626" d="M374.642,218.742a6.6,6.6,0,1,1-6.6-6.6A6.6,6.6,0,0,1,374.642,218.742Z" transform="translate(-273.93 -197.63)" fill="#90c240"/>
        <path id="Path_6627" data-name="Path 6627" d="M382.85,218.742a6.6,6.6,0,1,1-6.6-6.6A6.595,6.595,0,0,1,382.85,218.742Z" transform="translate(-240.361 -197.63)" fill="#eb4f24"/>
      </g>
      <g id="Group_789" data-name="Group 789" transform="translate(358.857 475.772)">
        <circle id="Ellipse_72" data-name="Ellipse 72" cx="16.069" cy="16.069" r="16.069" transform="translate(8.109 9.791)" fill="#fff"/>
        <g id="Group_788" data-name="Group 788">
          <path id="Path_6628" data-name="Path 6628" d="M303.95,248.572h-2.83l-4.067-5.731a1.725,1.725,0,0,0-1.4-.723H279.418a1.708,1.708,0,0,0-1.395.723l-4.067,5.731h-2.835a8.031,8.031,0,0,0-8.006,8.006v23.3a8.031,8.031,0,0,0,8.006,8.006H303.95a8.031,8.031,0,0,0,8.006-8.006v-23.3A8.031,8.031,0,0,0,303.95,248.572Zm-16.415,31.256a11.8,11.8,0,1,1,11.8-11.8A11.8,11.8,0,0,1,287.536,279.828Z" transform="translate(-263.115 -242.118)" fill="#9570ee"/>
          <circle id="Ellipse_73" data-name="Ellipse 73" cx="7.802" cy="7.802" r="7.802" transform="translate(16.62 18.107)" fill="#6db8ff"/>
        </g>
      </g>
      <g id="Group_790" data-name="Group 790" transform="translate(826.516 394.144)">
        <path id="Rectangle_400" data-name="Rectangle 400" d="M2.045,0H139.489a2.045,2.045,0,0,1,2.045,2.045V90.924a2.045,2.045,0,0,1-2.045,2.045H2.044A2.044,2.044,0,0,1,0,90.924V2.045A2.045,2.045,0,0,1,2.045,0Z" fill="#e3eaff"/>
        <path id="Path_6629" data-name="Path 6629" d="M415.972,265.4H415.7a3.692,3.692,0,0,1-1.807-.468l-54.552-30.31a3.718,3.718,0,1,1,3.614-6.5l52.883,29.383,52.888-29.383a3.718,3.718,0,1,1,3.614,6.5l-54.557,30.31A3.664,3.664,0,0,1,415.972,265.4Z" transform="translate(-345.07 -219.638)" fill="#fd4940"/>
      </g>
      <rect id="Rectangle_401" data-name="Rectangle 401" width="175.472" height="226.926" rx="1.814" transform="translate(1000.084 250.655)" fill="#544db8"/>
      <g id="Group_791" data-name="Group 791" transform="translate(1026.469 276.552)">
        <path id="Path_6630" data-name="Path 6630" d="M407.1,207.5H395.407c-.621,0-1.125-1.013-1.125-2.26h0c0-1.247.5-2.26,1.125-2.26H407.1c.621,0,1.125,1.013,1.125,2.26h0C408.223,206.484,407.719,207.5,407.1,207.5Z" transform="translate(-394.282 -202.977)" fill="#0cf"/>
        <path id="Path_6631" data-name="Path 6631" d="M465.66,207.5H398.786c-.621,0-1.125-1.013-1.125-2.26h0c0-1.247.5-2.26,1.125-2.26H465.66c.621,0,1.125,1.013,1.125,2.26h0C466.785,206.484,466.281,207.5,465.66,207.5Z" transform="translate(-380.463 -202.977)" fill="#0cf"/>
        <path id="Path_6632" data-name="Path 6632" d="M420.117,209.333H398.786c-.621,0-1.125-1.013-1.125-2.26h0c0-1.252.5-2.26,1.125-2.26h21.331c.621,0,1.125,1.008,1.125,2.26h0C421.242,208.32,420.738,209.333,420.117,209.333Z" transform="translate(-380.463 -195.468)" fill="#ff56a9"/>
        <path id="Path_6633" data-name="Path 6633" d="M434.577,209.333H403.83c-.621,0-1.125-1.013-1.125-2.26h0c0-1.252.5-2.26,1.125-2.26h30.747c.621,0,1.125,1.008,1.125,2.26h0C435.7,208.32,435.2,209.333,434.577,209.333Z" transform="translate(-359.834 -195.468)" fill="#e3eaff"/>
        <path id="Path_6634" data-name="Path 6634" d="M465.66,218.271H398.786c-.621,0-1.125-1.013-1.125-2.26h0c0-1.247.5-2.26,1.125-2.26H465.66c.621,0,1.125,1.013,1.125,2.26h0C466.785,217.258,466.281,218.271,465.66,218.271Z" transform="translate(-380.463 -158.914)" fill="#e3eaff"/>
        <path id="Path_6635" data-name="Path 6635" d="M407.1,220.107H395.407c-.621,0-1.125-1.013-1.125-2.26h0c0-1.247.5-2.26,1.125-2.26H407.1c.621,0,1.125,1.013,1.125,2.26h0C408.223,219.094,407.719,220.107,407.1,220.107Z" transform="translate(-394.282 -151.405)" fill="#0cf"/>
        <path id="Path_6636" data-name="Path 6636" d="M420.117,220.107H398.786c-.621,0-1.125-1.013-1.125-2.26h0c0-1.247.5-2.26,1.125-2.26h21.331c.621,0,1.125,1.013,1.125,2.26h0C421.242,219.094,420.738,220.107,420.117,220.107Z" transform="translate(-380.463 -151.405)" fill="#e3eaff"/>
        <path id="Path_6637" data-name="Path 6637" d="M434.577,220.107H403.83c-.621,0-1.125-1.013-1.125-2.26h0c0-1.247.5-2.26,1.125-2.26h30.747c.621,0,1.125,1.013,1.125,2.26h0C435.7,219.094,435.2,220.107,434.577,220.107Z" transform="translate(-359.834 -151.405)" fill="#ff56a9"/>
        <path id="Path_6638" data-name="Path 6638" d="M482.248,211.173H398.786c-.621,0-1.125-1.013-1.125-2.26h0c0-1.252.5-2.265,1.125-2.265h83.462c.621,0,1.125,1.013,1.125,2.265h0C483.373,210.16,482.869,211.173,482.248,211.173Z" transform="translate(-380.463 -187.963)" fill="#ff56a9"/>
        <rect id="Rectangle_402" data-name="Rectangle 402" width="21.813" height="4.521" rx="0.234" transform="translate(63.67 28.03)" fill="#0cf"/>
        <path id="Path_6639" data-name="Path 6639" d="M426.51,213.009H398.786c-.621,0-1.125-1.013-1.125-2.265h0c0-1.247.5-2.26,1.125-2.26H426.51c.621,0,1.125,1.013,1.125,2.26h0C427.635,212,427.131,213.009,426.51,213.009Z" transform="translate(-380.463 -180.455)" fill="#e3eaff"/>
        <path id="Path_6640" data-name="Path 6640" d="M415.966,213.009H404.972c-.621,0-1.125-1.013-1.125-2.265h0c0-1.247.5-2.26,1.125-2.26h10.994c.621,0,1.125,1.013,1.125,2.26h0C417.091,212,416.587,213.009,415.966,213.009Z" transform="translate(-355.163 -180.455)" fill="#0cf"/>
        <path id="Path_6641" data-name="Path 6641" d="M407.1,214.779H395.407c-.621,0-1.125-1.013-1.125-2.26h0c0-1.247.5-2.26,1.125-2.26H407.1c.621,0,1.125,1.013,1.125,2.26h0C408.223,213.766,407.719,214.779,407.1,214.779Z" transform="translate(-394.282 -173.195)" fill="#e3eaff"/>
        <path id="Path_6642" data-name="Path 6642" d="M482.248,214.779H398.786c-.621,0-1.125-1.013-1.125-2.26h0c0-1.247.5-2.26,1.125-2.26h83.462c.621,0,1.125,1.013,1.125,2.26h0C483.373,213.766,482.869,214.779,482.248,214.779Z" transform="translate(-380.463 -173.195)" fill="#e3eaff"/>
        <path id="Path_6643" data-name="Path 6643" d="M407.1,221.807H395.407c-.621,0-1.125-1.013-1.125-2.26h0c0-1.247.5-2.26,1.125-2.26H407.1c.621,0,1.125,1.013,1.125,2.26h0C408.223,220.794,407.719,221.807,407.1,221.807Z" transform="translate(-394.282 -144.452)" fill="#e3eaff"/>
        <rect id="Rectangle_403" data-name="Rectangle 403" width="30.178" height="4.521" rx="0.275" transform="translate(63.67 72.834)" fill="#e3eaff"/>
        <path id="Path_6644" data-name="Path 6644" d="M426.51,221.807H398.786c-.621,0-1.125-1.013-1.125-2.26h0c0-1.247.5-2.26,1.125-2.26H426.51c.621,0,1.125,1.013,1.125,2.26h0C427.635,220.794,427.131,221.807,426.51,221.807Z" transform="translate(-380.463 -144.452)" fill="#e3eaff"/>
        <path id="Path_6645" data-name="Path 6645" d="M415.966,221.807H404.972c-.621,0-1.125-1.013-1.125-2.26h0c0-1.247.5-2.26,1.125-2.26h10.994c.621,0,1.125,1.013,1.125,2.26h0C417.091,220.794,416.587,221.807,415.966,221.807Z" transform="translate(-355.163 -144.452)" fill="#e3eaff"/>
        <path id="Path_6646" data-name="Path 6646" d="M407.1,223.582H395.407c-.621,0-1.125-1.013-1.125-2.26h0c0-1.252.5-2.26,1.125-2.26H407.1c.621,0,1.125,1.008,1.125,2.26h0C408.223,222.569,407.719,223.582,407.1,223.582Z" transform="translate(-394.282 -137.193)" fill="#ffc359"/>
        <path id="Path_6647" data-name="Path 6647" d="M413.236,223.582h-14.45c-.621,0-1.125-1.013-1.125-2.26h0c0-1.252.5-2.26,1.125-2.26h14.45c.621,0,1.125,1.008,1.125,2.26h0C414.361,222.569,413.857,223.582,413.236,223.582Z" transform="translate(-380.463 -137.193)" fill="#0cf"/>
        <path id="Path_6648" data-name="Path 6648" d="M395.407,216.615c-.621,0-1.125-1.013-1.125-2.26h0c0-1.247.5-2.26,1.125-2.26H407.1c.621,0,1.125,1.013,1.125,2.26h0c0,1.247-.5,2.26-1.125,2.26" transform="translate(-394.282 -165.686)" fill="#0cf"/>
        <rect id="Rectangle_404" data-name="Rectangle 404" width="34.1" height="4.521" rx="0.292" transform="translate(63.67 46.407)" fill="#e3eaff"/>
        <path id="Path_6649" data-name="Path 6649" d="M426.51,216.615H398.786c-.621,0-1.125-1.013-1.125-2.26h0c0-1.247.5-2.26,1.125-2.26H426.51c.621,0,1.125,1.013,1.125,2.26h0C427.635,215.6,427.131,216.615,426.51,216.615Z" transform="translate(-380.463 -165.686)" fill="#ffc359"/>
        <path id="Path_6650" data-name="Path 6650" d="M415.966,216.615H404.972c-.621,0-1.125-1.013-1.125-2.26h0c0-1.247.5-2.26,1.125-2.26h10.994c.621,0,1.125,1.013,1.125,2.26h0C417.091,215.6,416.587,216.615,415.966,216.615Z" transform="translate(-355.163 -165.686)" fill="#ffc359"/>
        <path id="Path_6651" data-name="Path 6651" d="M465.66,225.469H398.786c-.621,0-1.125-1.013-1.125-2.26h0c0-1.247.5-2.26,1.125-2.26H465.66c.621,0,1.125,1.013,1.125,2.26h0C466.785,224.456,466.281,225.469,465.66,225.469Z" transform="translate(-380.463 -129.475)" fill="#e3eaff"/>
        <path id="Path_6652" data-name="Path 6652" d="M420.117,227.3H398.786c-.621,0-1.125-1.013-1.125-2.26h0c0-1.247.5-2.26,1.125-2.26h21.331c.621,0,1.125,1.013,1.125,2.26h0C421.242,226.292,420.738,227.3,420.117,227.3Z" transform="translate(-380.463 -121.966)" fill="#e3eaff"/>
        <path id="Path_6653" data-name="Path 6653" d="M434.577,227.3H403.83c-.621,0-1.125-1.013-1.125-2.26h0c0-1.247.5-2.26,1.125-2.26h30.747c.621,0,1.125,1.013,1.125,2.26h0C435.7,226.292,435.2,227.3,434.577,227.3Z" transform="translate(-359.834 -121.966)" fill="#e3eaff"/>
        <path id="Path_6654" data-name="Path 6654" d="M465.66,236.243H398.786c-.621,0-1.125-1.008-1.125-2.26h0c0-1.247.5-2.26,1.125-2.26H465.66c.621,0,1.125,1.013,1.125,2.26h0C466.785,235.235,466.281,236.243,465.66,236.243Z" transform="translate(-380.463 -85.412)" fill="#e3eaff"/>
        <path id="Path_6655" data-name="Path 6655" d="M407.1,238.079H395.407c-.621,0-1.125-1.013-1.125-2.26h0c0-1.247.5-2.26,1.125-2.26H407.1c.621,0,1.125,1.013,1.125,2.26h0C408.223,237.066,407.719,238.079,407.1,238.079Z" transform="translate(-394.282 -77.903)" fill="#ff56a9"/>
        <path id="Path_6656" data-name="Path 6656" d="M420.117,238.079H398.786c-.621,0-1.125-1.013-1.125-2.26h0c0-1.247.5-2.26,1.125-2.26h21.331c.621,0,1.125,1.013,1.125,2.26h0C421.242,237.066,420.738,238.079,420.117,238.079Z" transform="translate(-380.463 -77.903)" fill="#0cf"/>
        <path id="Path_6657" data-name="Path 6657" d="M434.577,238.079H403.83c-.621,0-1.125-1.013-1.125-2.26h0c0-1.247.5-2.26,1.125-2.26h30.747c.621,0,1.125,1.013,1.125,2.26h0C435.7,237.066,435.2,238.079,434.577,238.079Z" transform="translate(-359.834 -77.903)" fill="#e3eaff"/>
        <path id="Path_6658" data-name="Path 6658" d="M407.1,229.141H395.407c-.621,0-1.125-1.013-1.125-2.26h0c0-1.252.5-2.26,1.125-2.26H407.1c.621,0,1.125,1.008,1.125,2.26h0C408.223,228.128,407.719,229.141,407.1,229.141Z" transform="translate(-394.282 -114.458)" fill="#ff56a9"/>
        <rect id="Rectangle_405" data-name="Rectangle 405" width="62.187" height="4.521" rx="0.267" transform="translate(17.196 110.161)" fill="#ff56a9"/>
        <path id="Path_6659" data-name="Path 6659" d="M407.1,230.981H395.407c-.621,0-1.125-1.013-1.125-2.265h0c0-1.247.5-2.26,1.125-2.26H407.1c.621,0,1.125,1.013,1.125,2.26h0C408.223,229.968,407.719,230.981,407.1,230.981Z" transform="translate(-394.282 -106.953)" fill="#e3eaff"/>
        <path id="Path_6660" data-name="Path 6660" d="M426.51,230.981H398.786c-.621,0-1.125-1.013-1.125-2.265h0c0-1.247.5-2.26,1.125-2.26H426.51c.621,0,1.125,1.013,1.125,2.26h0C427.635,229.968,427.131,230.981,426.51,230.981Z" transform="translate(-380.463 -106.953)" fill="#e3eaff"/>
        <path id="Path_6661" data-name="Path 6661" d="M415.966,230.981H404.972c-.621,0-1.125-1.013-1.125-2.265h0c0-1.247.5-2.26,1.125-2.26h10.994c.621,0,1.125,1.013,1.125,2.26h0C417.091,229.968,416.587,230.981,415.966,230.981Z" transform="translate(-355.163 -106.953)" fill="#e3eaff"/>
        <path id="Path_6662" data-name="Path 6662" d="M407.1,232.751H395.407c-.621,0-1.125-1.008-1.125-2.26h0c0-1.247.5-2.26,1.125-2.26H407.1c.621,0,1.125,1.013,1.125,2.26h0C408.223,231.743,407.719,232.751,407.1,232.751Z" transform="translate(-394.282 -99.694)" fill="#e3eaff"/>
        <path id="Rectangle_406" data-name="Rectangle 406" d="M.3,0H78.007a.3.3,0,0,1,.3.3V4.222a.3.3,0,0,1-.3.3H.3a.3.3,0,0,1-.3-.3V.3A.3.3,0,0,1,.3,0Z" transform="translate(17.196 128.537)" fill="#e3eaff"/>
        <path id="Path_6663" data-name="Path 6663" d="M407.1,239.779H395.407c-.621,0-1.125-1.013-1.125-2.26h0c0-1.247.5-2.26,1.125-2.26H407.1c.621,0,1.125,1.013,1.125,2.26h0C408.223,238.766,407.719,239.779,407.1,239.779Z" transform="translate(-394.282 -70.951)" fill="#e3eaff"/>
        <path id="Path_6664" data-name="Path 6664" d="M444.822,239.779H407.916c-.621,0-1.125-1.013-1.125-2.26h0c0-1.247.5-2.26,1.125-2.26h36.906c.621,0,1.125,1.013,1.125,2.26h0C445.947,238.766,445.443,239.779,444.822,239.779Z" transform="translate(-343.123 -70.951)" fill="#e3eaff"/>
        <path id="Path_6665" data-name="Path 6665" d="M426.51,239.779H398.786c-.621,0-1.125-1.013-1.125-2.26h0c0-1.247.5-2.26,1.125-2.26H426.51c.621,0,1.125,1.013,1.125,2.26h0C427.635,238.766,427.131,239.779,426.51,239.779Z" transform="translate(-380.463 -70.951)" fill="#e3eaff"/>
        <path id="Path_6666" data-name="Path 6666" d="M415.966,239.779H404.972c-.621,0-1.125-1.013-1.125-2.26h0c0-1.247.5-2.26,1.125-2.26h10.994c.621,0,1.125,1.013,1.125,2.26h0C417.091,238.766,416.587,239.779,415.966,239.779Z" transform="translate(-355.163 -70.951)" fill="#e3eaff"/>
        <rect id="Rectangle_407" data-name="Rectangle 407" width="51.731" height="4.521" rx="0.243" transform="translate(17.196 173.341)" fill="#ffc359"/>
        <rect id="Rectangle_408" data-name="Rectangle 408" width="36.103" height="4.521" rx="0.301" transform="translate(63.67 137.881)" fill="#ff56a9"/>
        <path id="Path_6667" data-name="Path 6667" d="M426.51,234.587H398.786c-.621,0-1.125-1.013-1.125-2.26h0c0-1.247.5-2.26,1.125-2.26H426.51c.621,0,1.125,1.013,1.125,2.26h0C427.635,233.574,427.131,234.587,426.51,234.587Z" transform="translate(-380.463 -92.185)" fill="#ffc359"/>
        <path id="Path_6668" data-name="Path 6668" d="M415.966,234.587H404.972c-.621,0-1.125-1.013-1.125-2.26h0c0-1.247.5-2.26,1.125-2.26h10.994c.621,0,1.125,1.013,1.125,2.26h0C417.091,233.574,416.587,234.587,415.966,234.587Z" transform="translate(-355.163 -92.185)" fill="#ffc359"/>
      </g>
      <g id="Group_795" data-name="Group 795" transform="translate(1124.466 218.399)">
        <circle id="Ellipse_74" data-name="Ellipse 74" cx="36.942" cy="36.942" r="36.942" fill="#ff4dd1"/>
        <g id="Group_794" data-name="Group 794" transform="translate(13.292 28.016)">
          <g id="Group_792" data-name="Group 792">
            <path id="Path_6669" data-name="Path 6669" d="M437.122,202.517l-14.674,5.375,14.674,5.329v5.512l-20.975-7.976v-5.731l20.975-7.971Z" transform="translate(-416.147 -197.056)" fill="#f9fbfc"/>
          </g>
          <g id="Group_793" data-name="Group 793" transform="translate(25.765)">
            <path id="Path_6670" data-name="Path 6670" d="M421.209,197.056l20.975,7.971v5.731l-20.975,7.976v-5.512l14.674-5.329-14.674-5.375Z" transform="translate(-421.209 -197.056)" fill="#f9fbfc"/>
          </g>
        </g>
      </g>
      <g id="Group_797" data-name="Group 797" transform="translate(861.398 822.58)">
        <circle id="Ellipse_75" data-name="Ellipse 75" cx="40.071" cy="40.071" r="40.071" transform="matrix(0.828, -0.561, 0.561, 0.828, 0, 44.982)" fill="#ffc240"/>
        <g id="Group_796" data-name="Group 796" transform="translate(34.497 34.473)">
          <path id="Path_6671" data-name="Path 6671" d="M410.944,335.917a18.891,18.891,0,0,1-1.191,6.831,11.324,11.324,0,0,1-3.37,4.856,7.789,7.789,0,0,1-5.054,1.761,6.317,6.317,0,0,1-3.395-.916,5.269,5.269,0,0,1-2.122-2.423H395.4a8.875,8.875,0,0,1-7.126,3.339,9.518,9.518,0,0,1-7.228-2.759,10.447,10.447,0,0,1-2.647-7.553,11.672,11.672,0,0,1,3.476-8.81,12.515,12.515,0,0,1,9.07-3.344,31.374,31.374,0,0,1,4.907.428,26.472,26.472,0,0,1,4.418,1.028l-.6,12.669q0,3.6,1.97,3.6,1.656,0,2.641-2.423a17.077,17.077,0,0,0,.987-6.337,15.266,15.266,0,0,0-1.736-7.375,11.793,11.793,0,0,0-4.886-4.881,14.976,14.976,0,0,0-7.192-1.685,18.393,18.393,0,0,0-9.1,2.153,14.354,14.354,0,0,0-5.919,6.2,20.4,20.4,0,0,0-2.061,9.365q0,7.154,3.822,10.974t11.08,3.823a33.261,33.261,0,0,0,6.037-.606,40.088,40.088,0,0,0,6.479-1.776v4.978a31.253,31.253,0,0,1-12.312,2.356q-9.849,0-15.351-5.181t-5.507-14.409a24.164,24.164,0,0,1,2.81-11.625A20.406,20.406,0,0,1,379.444,320a23.682,23.682,0,0,1,11.961-2.967,21.7,21.7,0,0,1,10.185,2.331,16.532,16.532,0,0,1,6.917,6.632A19.812,19.812,0,0,1,410.944,335.917Zm-26.538,3.242q0,5.466,4.459,5.466a4.143,4.143,0,0,0,3.553-1.649,10.408,10.408,0,0,0,1.476-5.349l.336-5.726a14.3,14.3,0,0,0-2.983-.285,6.4,6.4,0,0,0-5.039,2.021A8,8,0,0,0,384.406,339.16Z" transform="translate(-368.628 -317.029)" fill="#fff"/>
        </g>
      </g>
      <g id="Group_798" data-name="Group 798" transform="translate(427.315 184.987)">
        <path id="Path_6672" data-name="Path 6672" d="M564.932,184.987H313.537a36.97,36.97,0,1,0,0,73.939h18.486l17.865,17.87,17.87-17.87H564.932a36.97,36.97,0,0,0,0-73.939Z" transform="translate(-276.565 -184.987)" fill="#9570ee"/>
        <path id="Path_6673" data-name="Path 6673" d="M455.335,201.212H289.912a4.138,4.138,0,0,1-4.138-4.138h0a4.137,4.137,0,0,1,4.138-4.133H455.335a4.136,4.136,0,0,1,4.133,4.133h0A4.137,4.137,0,0,1,455.335,201.212Z" transform="translate(-238.902 -152.457)" fill="#fff"/>
        <path id="Path_6674" data-name="Path 6674" d="M403.638,196.743H289.912a4.138,4.138,0,0,1-4.138-4.138h0a4.137,4.137,0,0,1,4.138-4.133H403.638a4.133,4.133,0,0,1,4.133,4.133h0A4.134,4.134,0,0,1,403.638,196.743Z" transform="translate(-238.902 -170.734)" fill="#fff"/>
      </g>
      <g id="Group_802" data-name="Group 802" transform="translate(989.155 560.96)">
        <path id="Path_6675" data-name="Path 6675" d="M404.57,281.971s-3.08,9.126-4.78,14.648c0,0,15.076-.321,20.38-7.324l-5.624-13.478Z" transform="translate(-334.438 -189.485)" fill="#f7d3a9"/>
        <g id="Group_799" data-name="Group 799" transform="translate(55.326 343.356)">
          <path id="Path_6676" data-name="Path 6676" d="M400.285,327.135l1.288,5.743,8.322.469-1.758-7.032Z" transform="translate(-387.744 -326.315)" fill="#f79a74"/>
          <path id="Path_6677" data-name="Path 6677" d="M411.65,327.6s-13.946,7.268-13.829,7.736,23.555-1.99,23.555-1.99l-1.4-5.273Z" transform="translate(-397.821 -321.043)" fill="#544db8"/>
        </g>
        <g id="Group_800" data-name="Group 800" transform="translate(131.337 329.017)">
          <path id="Path_6678" data-name="Path 6678" d="M414.1,327.088l3.269,4.895,7.933-2.558-4.171-5.928Z" transform="translate(-407.245 -323.498)" fill="#f79a74"/>
          <path id="Path_6679" data-name="Path 6679" d="M422.879,327.222s-10.393,11.8-10.118,12.2,21.265-10.337,21.265-10.337l-3.212-4.418Z" transform="translate(-412.755 -318.736)" fill="#544db8"/>
        </g>
        <path id="Path_6680" data-name="Path 6680" d="M403.215,297.22s-23.912,78.057,14.063,153.3h11.254s-22.5-85.086,5.624-154Z" transform="translate(-350.82 -104.822)" fill="#ffc240"/>
        <path id="Path_6681" data-name="Path 6681" d="M401.324,306.085s3.7,81.554,64.747,139.669l10.6-3.782s-49.783-72.585-46.444-146.947Z" transform="translate(-328.168 -110.928)" fill="#ffc240"/>
        <g id="Group_801" data-name="Group 801">
          <path id="Path_6682" data-name="Path 6682" d="M409.184,270.251l.031-4.81a2.375,2.375,0,0,0-.082-.626l-.916-3.441-2.744.7-2.8-2.58a2.374,2.374,0,0,0-3.761.718,26.588,26.588,0,0,0-2.158,5.991,2.338,2.338,0,0,0,.606,1.97l4.275,4.683a2.38,2.38,0,0,0,2.433.677l3.41-1.008A2.373,2.373,0,0,0,409.184,270.251Z" transform="translate(-346.982 -258.855)" fill="#f79a74"/>
          <path id="Path_6683" data-name="Path 6683" d="M448.3,366.182s-31.185-33.42-33.236-45.93-6.617-59.042-6.617-59.042l-9.615,1.858s-3.3,66.559-.382,74.219,21.667,46.724,33.883,50.333S453.125,379.186,448.3,366.182Z" transform="translate(-344.854 -249.224)" fill="#ff4f72"/>
          <path id="Path_6684" data-name="Path 6684" d="M402.027,280.982s-7.039,23.4-2.581,29.3,20.858.555,27.225-8.887,7.645-30.676-3.181-32.447S404.572,271.541,402.027,280.982Z" transform="translate(-341.896 -219.152)" fill="#f79a74"/>
          <path id="Path_6685" data-name="Path 6685" d="M453.174,377.7s6.327-67.511,6.327-85.793c0-.835-.015-1.618-.031-2.407-4.7-11.885-16.384-11.656-21.067-10.719s-22.97,6.8-22.853,7.5l-.051-.066c-6.3,4.581-11.116,10-11.554,11.315,0,0-16.878,35.165-2.107,77.36Z" transform="translate(-350.848 -178.976)" fill="#ff4f72"/>
          <path id="Path_6686" data-name="Path 6686" d="M399.9,269.671l-.819-4.739a2.324,2.324,0,0,0-.189-.606l-1.506-3.227-2.576,1.171-3.212-2.051a2.378,2.378,0,0,0-3.578,1.369,26.6,26.6,0,0,0-1.069,6.276,2.349,2.349,0,0,0,.942,1.838l5.029,3.853a2.383,2.383,0,0,0,2.514.244l3.181-1.593A2.376,2.376,0,0,0,399.9,269.671Z" transform="translate(-386.951 -254.824)" fill="#f79a74"/>
          <path id="Path_6687" data-name="Path 6687" d="M454.8,358.183s-36.57-27.424-40.789-39.38-16.878-56.965-16.878-56.965l-9.141,3.517s8.439,66.106,12.658,73.135,29.536,42.194,42.194,43.6S461.826,370.138,454.8,358.183Z" transform="translate(-382.71 -246.656)" fill="#ff4f72"/>
          <path id="Path_6688" data-name="Path 6688" d="M430.915,270.162s-18.751-7.966-27.663,8.439c-4.688,10.317,10.317.473,13.132,3.751s-3.751,9.849-1.878,12.19,5.156-4.219,7.034-.468-2.815,4.219-6.1,8.439,2.815,10.312-1.873,14.063-17.814,6.566-9.844,26.726-13.132,25.312-4.219,52.974,69.384,43.131,80.632,10.312-26.253-40.785-23.907-55.321,10.78-18.283-.468-32.814-18.288-22.975-15-32.351S435.135,270.162,430.915,270.162Z" transform="translate(-344.765 -220.521)" fill="#544db8"/>
        </g>
      </g>
      <path id="Path_6689" data-name="Path 6689" d="M446.32,246.338a40.314,40.314,0,1,0,40.311,40.311A40.313,40.313,0,0,0,446.32,246.338Zm-20.384,37.176a4.929,4.929,0,1,1,4.927,4.932A4.931,4.931,0,0,1,425.936,283.514Zm20.384,25.138a12.822,12.822,0,0,1-12.7-11.081h25.393A12.82,12.82,0,0,1,446.32,308.652Zm15.453-20.206a4.929,4.929,0,1,1,4.927-4.932A4.929,4.929,0,0,1,461.773,288.446Z" transform="translate(680.127 250.912)" fill="#fec800"/>
      <path id="Path_6690" data-name="Path 6690" d="M298.169,392.818l-2.36-4.721,63.905-31.953,80.619,1.319,87.54-32.973h66.859L666.12,300.7l.582.062,57.247,6.509,32.272-16.78,2.432,4.68L724.96,312.688l-.8-.087-57.469-6.535-71.528,23.7h-66.8l-87.1,32.994-.505-.01-79.835-1.309Z" transform="translate(229.452 431.471)" fill="#f9fbfc"/>
      <g id="Group_809" data-name="Group 809" transform="translate(716.425 449.435)">
        <path id="Path_6691" data-name="Path 6691" d="M342.353,297.969S405.68,400.543,397.766,471.9l43.1.9-18.471-10.7,5.278-.891S411.839,350.6,396.885,311.35c-15.661-41.105-20.227-25.866-20.227-25.866Z" transform="translate(-296.616 -49.723)" fill="#544db8"/>
        <path id="Path_6692" data-name="Path 6692" d="M356.235,287.292s3.517,71.247-1.756,98.513-21.112,80.917-21.112,80.917l40.459.881L363.2,460.1l-6.744-3.934s28.808-77.4,31.445-114.342,7.039-58.049,7.039-58.049Z" transform="translate(-333.367 -45.413)" fill="#544db8"/>
        <g id="Group_808" data-name="Group 808" transform="translate(13.569)">
          <path id="Path_6693" data-name="Path 6693" d="M357.571,267.949l6.6-4.618,2.968-10.885-3.3-.66-1.979,3.958,1.979-18.8-3.3.66-3.3,18.14-3.958,8.576,3.628,2.309" transform="translate(-265.482 -236.944)" fill="#f7d3a9"/>
          <path id="Path_6694" data-name="Path 6694" d="M361.794,261.015l.88-7.916,9.675-9.675,2.2,3.078-3.518,3.958,18.471-4.4v3.958l-17.152,6.6-3.519,6.157Z" transform="translate(-230.675 -210.44)" fill="#f7d3a9"/>
          <g id="Group_807" data-name="Group 807" transform="translate(0 24.346)">
            <g id="Group_806" data-name="Group 806">
              <g id="Group_805" data-name="Group 805">
                <path id="Path_6695" data-name="Path 6695" d="M423.542,241.727s-75.11,91.158-83.859,109.39c0,0-3.649,6.561-3.649,25.52s6.566,88.97,6.566,88.97l76.571,4.377s-24.8-85.325-25.525-87.509-13.126-15.315-24.792-18.232l64.172-115.951Z" transform="translate(-336.033 -241.727)" fill="#6db8ff"/>
                <g id="Group_804" data-name="Group 804" transform="translate(19.704 69.139)">
                  <path id="Path_6696" data-name="Path 6696" d="M356.883,269.2s3.191,9.462,4.953,15.188c0,0-15.631-.331-21.133-7.594l5.833-13.977Z" transform="translate(-336.638 -224.624)" fill="#f7d3a9"/>
                  <g id="Group_803" data-name="Group 803">
                    <path id="Path_6697" data-name="Path 6697" d="M372.035,270.3s4.621,26.925,0,33.043-20.471-4.286-27.073-14.073-7.925-31.816,3.3-33.654S369.393,260.508,372.035,270.3Z" transform="translate(-339.904 -255.311)" fill="#f7d3a9"/>
                  </g>
                </g>
                <path id="Path_6698" data-name="Path 6698" d="M347.273,357.408s60.217-37.878,65.078-45.65S430.8,246.2,430.8,246.2l11.656,2.911s-6.8,64.594-8.739,71.394-61.194,69.928-74.789,69.928S340.473,372.952,347.273,357.408Z" transform="translate(-302.544 -223.45)" fill="#6db8ff"/>
              </g>
            </g>
          </g>
        </g>
        <path id="Path_6699" data-name="Path 6699" d="M371.3,273.012s3.079-10.556-3.517-15.834-18.028-4.4-19.789-2.636c0,3.079,7.034,4.835,5.278,6.6s-10.994,0-13.193,9.233.875,11,.875,11-4.835,5.716.881,13.631,18.639,14.445,21.855,13.6,1.456-13.157,1.456-13.157-7.477-.881-7.92-5.721,3.522-5.278,5.278-3.517,2.2,5.716,3.522,4.835-.443-10.113-.443-10.113S370.42,276.967,371.3,273.012Z" transform="translate(-310.167 -170.543)" fill="#544db8"/>
      </g>
      <g id="Group_811" data-name="Group 811" transform="translate(750.534 820.516)">
        <path id="Path_6700" data-name="Path 6700" d="M402.533,310.683,357.31,323.091A23.516,23.516,0,0,0,340.9,351.9l8.556,31.185A23.517,23.517,0,0,0,378.27,399.5l13.564-3.721,13.35,13.193,4.749-18.16,13.559-3.721A23.51,23.51,0,0,0,439.9,358.282l-8.551-31.19A23.523,23.523,0,0,0,402.533,310.683Z" transform="translate(-340.069 -309.85)" fill="#9570ee"/>
        <g id="Group_810" data-name="Group 810" transform="translate(22.349 35.623)">
          <path id="Path_6701" data-name="Path 6701" d="M354.652,323.122a5.189,5.189,0,1,1-6.378-3.629A5.188,5.188,0,0,1,354.652,323.122Z" transform="translate(-344.459 -306.801)" fill="#fff"/>
          <path id="Path_6702" data-name="Path 6702" d="M359.13,321.894a5.188,5.188,0,1,1-6.372-3.629A5.188,5.188,0,0,1,359.13,321.894Z" transform="translate(-326.145 -311.823)" fill="#fff"/>
          <path id="Path_6703" data-name="Path 6703" d="M363.608,320.67a5.188,5.188,0,1,1-6.373-3.634A5.185,5.185,0,0,1,363.608,320.67Z" transform="translate(-307.831 -316.849)" fill="#fff"/>
        </g>
      </g>
      <circle id="Ellipse_76" data-name="Ellipse 76" cx="8.356" cy="8.356" r="8.356" transform="translate(580.974 780.589)" fill="#ffc240"/>
      <circle id="Ellipse_77" data-name="Ellipse 77" cx="8.356" cy="8.356" r="8.356" transform="translate(887.94 726.936)" fill="#ff4f72"/>
    </g>
  </g>
</svg>
